<svg xmlns="http://www.w3.org/2000/svg"><defs><font horiz-adv-x="512"><font-face units-per-em="512" ascent="480" descent="-32"/><glyph horiz-adv-x="256"/><glyph unicode="" d="M494.416 364.483l-235.12 47.185c-2.165.445-4.42.445-6.6 0L17.593 364.483c-7.737-1.57-13.302-8.303-13.302-16.108V62.065c0-7.813 5.565-14.54 13.302-16.1L252.697-1.2c2.178-.466 4.434-.466 6.6 0l235.12 47.164c7.728 1.562 13.3 8.288 13.3 16.1v286.31c0 7.807-5.57 14.54-13.3 16.11zM223.143 144.045c-16.154-35.594-41.5-53.603-75.345-53.603-56.506 0-94.454 46.13-94.454 114.77 0 68.678 37.955 114.816 94.454 114.816 33.65 0 58.845-17.074 74.93-50.745 1.44-2.986 1.583-6.44.416-9.54-1.138-3.146-3.522-5.657-6.59-7.007l-27.308-12.186c-6.237-2.775-13.688-.045-16.523 6.19-4.072 8.84-11.703 19.428-24.923 19.428-20.92 0-35.512-25.067-35.512-60.964 0-35.882 14.592-60.933 35.512-60.933 14.977 0 22.185 14.73 24.607 21.056 1.2 3.175 3.657 5.76 6.817 7.043 3.175 1.372 6.742 1.304 9.872-.04l27.624-11.884c3.07-1.296 5.468-3.77 6.673-6.878 1.214-3.077 1.117-6.493-.25-9.524zm234.404 0c-16.154-35.594-41.485-53.603-75.344-53.603-56.506 0-94.454 46.13-94.454 114.77 0 68.678 37.954 114.816 94.453 114.816 33.65 0 58.845-17.074 74.93-50.745 1.44-2.986 1.576-6.44.416-9.54-1.14-3.146-3.523-5.657-6.592-7.007L423.65 240.55c-6.235-2.775-13.68-.045-16.52 6.19-4.073 8.84-11.704 19.428-24.924 19.428-20.92 0-35.52-25.067-35.52-60.964 0-35.882 14.593-60.933 35.52-60.933 14.977 0 22.185 14.73 24.607 21.056 1.2 3.175 3.666 5.76 6.817 7.043 3.175 1.372 6.742 1.304 9.872-.04l27.623-11.884c3.07-1.296 5.476-3.77 6.673-6.878 1.222-3.077 1.125-6.493-.25-9.524z"/><glyph unicode="" d="M437.01 405.01C390.686 451.338 326.694 480 256 480c-109.744 0-203.345-69.064-239.75-166.094l59.94-22.477C103.49 364.2 173.69 416 256 416c53.02 0 101.01-21.5 135.753-56.247L320 288h192v192l-74.99-74.99zM256 32c-53.02 0-101.013 21.496-135.756 56.244L192 160H0V-32l74.997 74.997C121.32-3.333 185.307-32 256-32c109.745 0 203.346 69.064 239.75 166.094l-59.938 22.477C408.51 83.8 338.31 32 256 32z"/><glyph unicode="" d="M384 416V32h-64v176L160 48v352l160-160v176z"/><glyph unicode="" d="M128 32v384h64V240l160 160V48L192 208V32z"/><glyph unicode="" d="M481 449V266.187L410.687 336.5l-84.375-84.375-42.188 42.188 84.375 84.375L298.185 449zM227.875 153.688L143.5 69.313 213.813-1H31v182.813l70.313-70.313 84.375 84.375z"/><glyph unicode="" d="M227.875 195.875V13.062l-70.313 70.313L73.187-1 31 41.188l84.374 84.375-70.313 70.313zM481 406.813l-84.375-84.375 70.313-70.313H284.125v182.813l70.313-70.313L438.813 449z"/><glyph unicode="" d="M512 175.953v96.094l-73.387 12.23c-2.98 9.067-6.61 17.835-10.847 26.25l43.227 60.518-67.948 67.95-60.413-43.153c-8.455 4.277-17.27 7.944-26.384 10.95L304.048 480h-96.095l-12.2-73.208c-9.116-3.007-17.93-6.674-26.384-10.95l-60.415 43.15-67.95-67.948 43.228-60.518c-4.235-8.415-7.867-17.183-10.846-26.25L0 272.047v-96.093l73.56-12.26c2.98-8.984 6.604-17.674 10.82-26.015L41.006 76.954l67.95-67.948 60.826 43.447c8.3-4.175 16.945-7.764 25.882-10.717L207.954-32h96.093l12.29 73.737c8.936 2.953 17.58 6.542 25.882 10.716l60.825-43.446 67.948 67.948-43.372 60.723c4.217 8.34 7.84 17.03 10.82 26.016l73.56 12.26zM256 160c-35.346 0-64 28.653-64 64 0 35.346 28.654 64 64 64 35.347 0 64-28.654 64-64 0-35.347-28.653-64-64-64z"/><glyph unicode="" d="M0 480h128V352H0zm192-32h320v-64H192zM0 288h128V160H0zm192-32h320v-64H192zM0 96h128V-32H0zm192-32h320V0H192z"/><glyph unicode="" d="M256 480C114.615 480 0 365.385 0 224S114.615-32 256-32 512 82.615 512 224 397.385 480 256 480zm0-464C141.125 16 48 109.125 48 224s93.125 208 208 208 208-93.125 208-208S370.875 16 256 16zm-64 320l192-112-192-112z"/><glyph unicode="" d="M256 480C114.615 480 0 365.385 0 224S114.615-32 256-32 512 82.615 512 224 397.385 480 256 480zm0-464C141.125 16 48 109.125 48 224s93.125 208 208 208 208-93.125 208-208S370.875 16 256 16zm-96 304h64V128h-64zm128 0h64V128h-64z"/><glyph unicode="" d="M61.82 457.017L450.18 224 61.82-9.017z"/><glyph unicode="" d="M22.983 457.017h194.18V-9.017H22.984zm271.854 0h194.18V-9.017h-194.18z"/><glyph unicode="" d="M445.02 18.98c-6.143 0-12.284 2.343-16.97 7.03-9.373 9.372-9.373 24.567 0 33.94C471.867 103.77 496 162.03 496 224c0 61.97-24.132 120.23-67.95 164.05-9.373 9.372-9.373 24.568 0 33.94 9.37 9.372 24.568 9.372 33.94 0C514.875 369.104 544 298.79 544 224S514.876 78.896 461.99 26.01c-4.686-4.687-10.828-7.03-16.97-7.03zm-85.255 45.255c-6.143 0-12.284 2.343-16.97 7.03-9.373 9.37-9.373 24.567 0 33.94 65.502 65.503 65.502 172.085 0 237.588-9.373 9.373-9.373 24.57 0 33.94 9.37 9.372 24.568 9.373 33.94 0C417.532 335.94 440 281.697 440 224c0-57.695-22.468-111.938-63.265-152.735-4.686-4.687-10.828-7.03-16.97-7.03zM274.51 109.49c-6.143 0-12.284 2.343-16.97 7.03-9.374 9.372-9.374 24.567 0 33.94 40.55 40.55 40.55 106.53 0 147.078-9.374 9.373-9.374 24.57 0 33.94 9.372 9.373 24.567 9.373 33.94 0 59.265-59.264 59.265-155.695 0-214.96-4.686-4.685-10.828-7.028-16.97-7.028zm-73.844 331.176C213.5 453.5 224 449.15 224 431V17c0-18.15-10.5-22.5-23.334-9.665L80 128H0v192h80l120.666 120.666z" horiz-adv-x="544"/><glyph unicode="" d="M359.765 64.235c-6.143 0-12.284 2.343-16.97 7.03-9.373 9.37-9.373 24.567 0 33.94 65.502 65.503 65.502 172.085 0 237.588-9.373 9.373-9.373 24.57 0 33.94 9.37 9.372 24.568 9.373 33.94 0C417.532 335.94 440 281.697 440 224c0-57.695-22.468-111.938-63.265-152.735-4.686-4.687-10.828-7.03-16.97-7.03zM274.51 109.49c-6.143 0-12.284 2.343-16.97 7.03-9.374 9.372-9.374 24.567 0 33.94 40.55 40.55 40.55 106.53 0 147.078-9.374 9.373-9.374 24.57 0 33.94 9.372 9.373 24.567 9.373 33.94 0 59.265-59.264 59.265-155.695 0-214.96-4.686-4.685-10.828-7.028-16.97-7.028zm-73.844 331.176C213.5 453.5 224 449.15 224 431V17c0-18.15-10.5-22.5-23.334-9.665L80 128H0v192h80l120.666 120.666z"/><glyph unicode="" d="M274.51 109.49c-6.143 0-12.284 2.343-16.97 7.03-9.374 9.372-9.374 24.567 0 33.94 40.55 40.55 40.55 106.53 0 147.078-9.374 9.373-9.374 24.57 0 33.94 9.372 9.373 24.567 9.373 33.94 0 59.265-59.264 59.265-155.695 0-214.96-4.686-4.685-10.828-7.028-16.97-7.028zm-73.844 331.176C213.5 453.5 224 449.15 224 431V17c0-18.15-10.5-22.5-23.334-9.665L80 128H0v192h80l120.666 120.666z"/><glyph unicode="" d="M200.666 440.666C213.5 453.5 224 449.15 224 431V17c0-18.15-10.5-22.5-23.334-9.665L80 128H0v192h80l120.666 120.666z"/><glyph unicode="" d="M200.666 440.666C213.5 453.5 224 449.15 224 431V17c0-18.15-10.5-22.5-23.334-9.665L80 128H0v192h80l120.666 120.666zM480 170.426V128h-42.426L384 181.574 330.426 128H288v42.426L341.574 224 288 277.574V320h42.426L384 266.426 437.574 320H480v-42.426L426.426 224z"/><glyph unicode="" d="M432 128c-22.58 0-42.96-9.37-57.506-24.415l-215.502 107.75C159.65 215.463 160 219.69 160 224s-.35 8.538-1.008 12.663l215.502 107.75C389.04 329.37 409.42 320 432 320c44.183 0 80 35.817 80 80s-35.817 80-80 80-80-35.817-80-80c0-4.31.352-8.538 1.008-12.663L137.506 279.585C122.96 294.63 102.58 304 80 304c-44.183 0-80-35.818-80-80 0-44.184 35.817-80 80-80 22.58 0 42.96 9.37 57.506 24.414l215.502-107.75C352.352 56.537 352 52.31 352 48c0-44.184 35.817-80 80-80s80 35.816 80 80c0 44.182-35.817 80-80 80z"/><glyph unicode="" d="M512 224c-.64 33.43-7.892 66.758-21.288 97.23-13.352 30.5-32.73 58.13-56.52 80.96-23.777 22.85-51.973 40.91-82.493 52.827C321.196 466.98 288.4 472.693 256 472c-32.405-.64-64.666-7.687-94.167-20.678-29.524-12.948-56.27-31.735-78.367-54.788-22.112-23.04-39.58-50.354-51.093-79.9C20.816 287.105 15.31 255.375 16 224c.643-31.38 7.482-62.574 20.067-91.103 12.544-28.55 30.738-54.414 53.055-75.774 22.305-21.377 48.736-38.252 77.307-49.36C194.987-3.39 225.65-8.687 256-8c30.354.645 60.48 7.277 88.038 19.457 27.575 12.14 52.558 29.74 73.183 51.322 20.642 21.57 36.923 47.117 47.628 74.714 6.517 16.73 10.94 34.2 13.27 51.9.624-.037 1.25-.06 1.882-.06 17.673 0 32 14.325 32 32 0 .897-.047 1.785-.12 2.665h.12zm-50.847-84.974c-11.736-26.6-28.742-50.7-49.59-70.59-20.834-19.905-45.5-35.593-72.12-45.895C312.827 12.203 284.296 7.316 256 8c-28.302.65-56.298 6.868-81.91 18.237-25.625 11.333-48.842 27.745-67.997 47.856-19.17 20.1-34.264 43.882-44.16 69.53C51.996 169.262 47.317 196.728 48 224c.65 27.276 6.664 54.206 17.627 78.845 10.93 24.65 26.75 46.985 46.123 65.405 19.365 18.434 42.265 32.935 66.937 42.428 24.67 9.53 51.068 14.003 77.313 13.322 26.25-.653 52.114-6.46 75.78-17.017 23.677-10.525 45.13-25.75 62.813-44.39 17.698-18.63 31.605-40.648 40.695-64.345 9.124-23.696 13.39-49.03 12.712-74.248h.12c-.073-.88-.12-1.768-.12-2.666 0-16.506 12.496-30.087 28.543-31.812-3.112-17.41-8.265-34.41-15.39-50.496z"/><glyph unicode="" d="M448 480H0V-32h512v448l-64 64zm-192-64h64V288h-64v128zM448 32H64v384h32V256h288v160h37.49L448 389.49V32z"/><glyph unicode="" d="M490.594 399.946C418.778 410.27 339.428 416 256 416c-83.43 0-162.777-5.73-234.596-16.054C7.64 346.083 0 286.57 0 224c0-62.57 7.64-122.083 21.404-175.945C93.224 37.73 172.572 32 256 32c83.428 0 162.777 5.73 234.594 16.055C504.36 101.917 512 161.43 512 224c0 62.57-7.64 122.083-21.406 175.946zM192 128v192l160-96-160-96z"/><glyph unicode="" d="M192 64h320V0H192zm0 192h320v-64H192zm0 192h320v-64H192zm-96 32V352H64v96H32v32zM64 217v-25h64v-32H32v73l64 30v25H32v32h96v-73zm64-89V-32H32V0h64v32H32v32h64v32H32v32z"/><glyph unicode="" d="M0 480V-32h512v512H0zM480 0H32v448h448V0zm-96 368L224 208l-96 96-64-64L224 80l224 224-64 64z"/><glyph unicode="" d="M0 480V-32h512v512H0zM480 0H32v448h448V0z"/><glyph unicode="" d="M329.372 105.372L224 210.745V352h64V237.255l86.628-86.627zM256 480C114.615 480 0 365.385 0 224S114.615-32 256-32 512 82.615 512 224 397.385 480 256 480zm0-448C149.96 32 64 117.96 64 224s85.96 192 192 192 192-85.96 192-192S362.04 32 256 32z"/><glyph unicode="" d="M64 224l128 128h-64L0 224 128 96h64zm320 128h-64l128-128L320 96h64l128 128zm-112 64L192 32h48l80 384z"/></font>
</defs>
</svg>
