<svg xmlns="http://www.w3.org/2000/svg"><defs><font horiz-adv-x="1024"><font-face units-per-em="1024" ascent="960" descent="-64"/><glyph horiz-adv-x="512"/><glyph unicode="" d="M320.853 22.187C181.333 87.894 81.493 223.574 66.133 384h-64C23.893 121.173 243.626-85.333 512-85.333l28.16 1.28L377.6 78.507l-56.747-56.32zm37.974 278.187c-8.107 0-15.787 1.28-22.187 3.413-6.827 2.56-12.373 5.547-17.067 10.24-4.693 4.267-8.533 9.387-11.093 15.787-2.56 5.973-3.84 12.8-3.84 20.053h-55.467c0-15.36 2.987-29.013 8.96-40.533s14.08-21.333 23.893-29.44c10.24-7.68 21.76-13.653 34.987-17.493 12.8-4.266 26.453-6.4 40.96-6.4 15.787 0 30.72 2.134 43.947 6.4 13.653 4.268 25.6 10.668 35.413 18.774s17.92 18.347 23.467 30.72c5.547 12.373 8.533 26.027 8.533 41.387 0 8.108-.853 16.214-2.987 23.894s-5.12 14.933-9.813 21.76c-4.267 6.827-10.24 12.8-17.067 18.347-7.253 5.548-15.787 9.814-26.027 13.228 8.532 3.84 15.786 8.533 22.186 14.08s11.52 11.52 15.787 17.92c4.267 6.4 7.253 12.8 9.387 19.627s2.987 13.653 2.987 20.48c0 15.36-2.56 29.013-7.68 40.96s-12.373 21.76-21.76 29.44c-8.533 8.107-20.053 14.08-32.853 18.347-13.227 3.84-27.733 5.973-43.52 5.973-15.36 0-29.44-2.133-42.667-6.827-12.8-4.693-24.32-11.093-33.707-19.2-8.96-8.107-16.213-17.493-21.76-28.587-5.12-11.092-7.68-23.04-7.68-36.266h55.467c0 7.253 1.28 13.653 3.84 19.2s5.973 10.667 10.667 14.507c4.693 3.84 9.813 7.254 16.213 9.388s12.8 3.413 20.48 3.413c17.067 0 29.867-4.266 37.973-13.226 8.107-8.533 12.373-20.907 12.373-36.693 0-7.68-1.28-14.506-3.413-20.906s-5.973-11.52-10.667-15.787c-4.693-4.267-10.667-7.68-17.493-10.24s-15.36-3.84-24.747-3.84H320V408.32h32.853c9.387 0 17.92-.853 25.6-2.987s14.08-5.547 19.2-9.813c5.12-4.693 9.387-10.24 12.373-17.067s4.267-14.933 4.267-24.32c0-17.493-5.12-30.72-14.933-39.68-9.813-9.813-23.467-14.08-40.533-14.08zm364.8 252.586c-13.653 14.08-29.867 25.173-48.64 32.853-18.347 7.68-39.253 11.52-62.293 11.52H512V256h98.134c23.467 0 45.227 3.84 64.427 11.52s35.84 18.347 49.494 32.427c13.653 14.08 24.32 31.147 31.573 50.773 7.253 20.053 11.093 42.24 11.093 66.987v17.067c0 24.747-3.84 46.933-11.093 66.987-7.68 20.054-18.347 37.12-32 51.2zm-16.64-134.826c0-17.92-2.133-33.707-5.973-48.213-4.267-14.08-10.24-26.452-18.347-36.266s-18.347-17.493-30.293-22.613c-12.373-5.12-26.453-7.68-42.24-7.68h-38.827V549.55h41.387c30.72 0 54.187-9.813 69.973-29.44 16.213-19.627 24.32-47.787 24.32-84.907v-17.066zM512 938.667l-28.16-1.28 162.56-162.56 56.747 56.747c139.52-66.133 239.36-201.387 254.293-361.813h64C1000.107 732.16 780.373 938.67 512 938.67z"/><glyph unicode="" d="M512 853.334c46.933 0 85.333-38.4 85.333-85.333S558.933 682.67 512 682.67s-85.333 38.4-85.333 85.333 38.4 85.334 85.333 85.334zm384-298.667H640V0h-85.333v256h-85.333V0H384v554.667H128V640h768v-85.333z"/><glyph unicode="" d="M896 170.667V128c0-46.933-38.4-85.333-85.333-85.333H213.334C165.974 42.667 128 81.067 128 128v597.333c0 46.933 37.974 85.333 85.334 85.333h597.333c46.933 0 85.333-38.4 85.333-85.333v-42.667H512c-47.36 0-85.333-38.4-85.333-85.333V256c0-46.933 37.973-85.333 85.333-85.333h384zM512 256h426.667v341.333H512V256zm170.667 106.667c-35.413 0-64 28.587-64 64s28.587 64 64 64 64-28.587 64-64-28.587-64-64-64z"/><glyph unicode="" d="M170.667 512V213.333h128V512h-128zm256 0V213.333h128V512h-128zM85.333 0H896v128H85.333V0zm597.334 512V213.333h128V512h-128zm-192 384L85.334 682.667v-85.333H896v85.333L490.67 896z"/><glyph unicode="" d="M128 725.334V128c0-46.932 37.973-85.332 85.333-85.332h597.333C857.6 42.668 896 81.068 896 128v597.334c0 46.933-38.4 85.333-85.334 85.333H213.333c-47.36 0-85.333-38.4-85.333-85.333zm512-170.667c0-70.827-57.173-128-128-128s-128 57.173-128 128 57.173 128 128 128 128-57.173 128-128zM256 213.334C256 298.667 426.667 345.6 512 345.6s256-46.932 256-132.266v-42.667H256v42.667z"/><glyph unicode="" d="M576 363.094c0-35.346-28.654-64-64-64s-64 28.654-64 64c0 35.346 28.654 64 64 64s64-28.654 64-64zm-64 490.24c-235.52 0-426.667-191.147-426.667-426.667S276.48 0 512 0s426.667 191.147 426.667 426.667S747.52 853.334 512 853.334zm0-106.667c52.907 0 96-43.093 96-96s-43.093-96-96-96-96 43.093-96 96 43.093 96 96 96zm213.333-450.56V189.44c-19.2-17.493-40.96-32.853-64-44.8v29.013c0 14.507-7.253 27.733-19.627 39.253-27.733 26.453-80.64 43.52-129.707 43.52-40.96 0-83.628-11.947-113.068-31.147l-7.253-5.12-8.96-7.254c33.28-20.053 69.546-30.72 108.372-34.987l56.747-6.4c15.786-1.708 28.16-15.36 28.16-32 0-12.374-6.828-22.614-17.068-28.16-11.947-6.4-27.307-3.84-40.533-3.84-14.934 0-29.44.426-43.948 2.132-21.333 2.56-42.24 7.253-62.293 14.08-20.908 6.827-41.388 16.213-60.588 27.307-9.387 5.546-18.773 11.52-27.733 18.346l-13.228 10.24c-1.707.853-11.947 7.68-11.947 9.813V372.05c0 67.413 112.213 118.613 213.333 118.613s213.333-51.2 213.333-118.613v-75.947z"/><glyph unicode="" d="M512 853.334c-235.52 0-426.667-191.147-426.667-426.667S276.48 0 512 0s426.667 191.147 426.667 426.667S747.52 853.334 512 853.334zm0-128c70.827 0 128-57.173 128-128s-57.173-128-128-128-128 57.173-128 128 57.173 128 128 128zm0-605.867c-106.667 0-200.96 54.613-256 137.387 1.28 84.907 170.667 131.413 256 131.413 84.907 0 254.72-46.507 256-131.413-55.04-82.773-149.333-137.387-256-137.387z"/><glyph unicode="" d="M469.333 554.667h85.333v128h128V768h-128v128h-85.333V768h-128v-85.333h128v-128zm-170.666-384c-46.933 0-84.907-38.4-84.907-85.333S251.733 0 298.667 0 384 38.4 384 85.335s-38.4 85.333-85.333 85.333zm426.666 0c-46.933 0-84.907-38.4-84.907-85.333S678.4 0 725.333 0s85.333 38.4 85.333 85.334-38.4 85.333-85.333 85.333zM305.92 309.334l1.28 5.12L345.6 384h317.867c32 0 60.16 17.494 74.667 43.948L902.827 727.04 828.587 768h-.427l-46.933-85.332-117.76-213.333h-299.52l-5.547 11.52-95.573 201.813L222.294 768l-40.107 85.334H42.667V768H128l153.6-323.84L224 339.63c-6.827-11.947-10.667-26.027-10.667-40.96 0-46.933 38.4-85.333 85.333-85.333h512v85.333h-494.08c-5.547 0-10.667 4.693-10.667 10.667z"/><glyph unicode="" d="M336.213 794.027l-54.613 65.28L85.333 695.04l55.04-65.28 195.84 164.267zm602.454-99.413L742.4 859.307l-55.04-65.28 196.267-164.693 55.04 65.28zM512 768c-212.053 0-384-171.947-384-384S299.52 0 512 0c212.053 0 384 171.947 384 384S724.053 768 512 768zm0-682.666C346.88 85.334 213.333 218.88 213.333 384S346.88 682.67 512 682.67 810.667 549.12 810.667 384 677.12 85.335 512 85.335zm42.667 469.333h-85.333v-128h-128v-85.333h128v-128h85.333v128h128v85.333h-128v128z"/><glyph unicode="" d="M512 682.667c165.12 0 298.667-133.547 298.667-298.667 0-35.84-6.827-70.4-18.347-102.4l64.853-64.853C881.92 267.52 896 323.84 896 384c0 212.053-171.947 384-384 384-60.16 0-116.48-14.08-167.253-38.827L409.6 664.32c32 11.52 66.56 18.347 102.4 18.347zm426.667 11.947L742.4 859.307l-55.04-65.28 196.267-164.693 55.04 65.28zM124.587 840.96L70.4 786.347l56.747-56.747-47.36-39.68 60.587-60.587 47.36 40.107 34.133-34.133C163.414 567.894 128 480 128 384 128 171.947 299.52 0 512 0c96 0 183.893 35.413 251.307 93.867L857.174 0l54.187 54.187L124.59 840.96zM702.72 154.027C651.093 111.36 584.533 85.334 512 85.334 346.88 85.334 213.333 218.88 213.333 384c0 72.534 26.027 139.094 68.693 190.72L702.72 154.03zM342.187 798.72L281.6 859.307l-36.693-30.293 60.587-60.587 36.693 30.293z"/><glyph unicode="" d="M938.667 694.614L742.4 859.307l-55.04-65.28 196.267-164.693 55.04 65.28zm-602.454 99.413l-54.613 65.28L85.333 695.04l55.04-65.28 195.84 164.267zM512 768c-212.053 0-384-171.947-384-384S299.52 0 512 0c212.053 0 384 171.947 384 384S724.053 768 512 768zm0-682.666C346.88 85.334 213.333 218.88 213.333 384S346.88 682.67 512 682.67 810.667 549.12 810.667 384 677.12 85.335 512 85.335zM449.707 318.72l-90.88 90.88-45.227-45.227 135.68-135.68 256 256-45.227 45.227-210.347-211.2z"/><glyph unicode="" d="M938.667 694.614L742.4 859.307l-55.04-65.28 196.267-164.693 55.04 65.28zm-602.454 99.413l-54.613 65.28L85.333 695.04l55.04-65.28 195.84 164.267zm197.12-196.693h-64v-256L672 219.734l32 52.48-170.667 101.12v224zM512 768c-212.053 0-384-171.947-384-384S299.52 0 512 0c212.053 0 384 171.947 384 384S724.053 768 512 768zm0-682.666C346.88 85.334 213.333 218.88 213.333 384S346.88 682.67 512 682.67 810.667 549.12 810.667 384 677.12 85.335 512 85.335z"/><glyph unicode="" d="M256 170.667C256 147.2 275.2 128 298.667 128h42.667V-21.333c0-35.413 28.587-64 64-64s64 28.587 64 64V128h85.333V-21.333c0-35.413 28.587-64 64-64s64 28.587 64 64V128h42.667C748.8 128 768 147.2 768 170.667v426.667H256V170.667zM149.333 597.334c-35.413 0-64-28.587-64-64V234.667c0-35.413 28.587-64 64-64s64 28.587 64 64v298.667c0 35.413-28.587 64-64 64zm725.334 0c-35.413 0-64-28.587-64-64V234.667c0-35.413 28.587-64 64-64s64 28.587 64 64v298.667c0 35.413-28.587 64-64 64zM662.613 846.507l55.467 55.467c8.533 8.533 8.533 21.76 0 30.293s-21.76 8.533-30.293 0L624.64 869.12C590.933 886.187 552.533 896 512 896c-40.96 0-79.36-9.813-113.493-26.88l-63.573 63.147c-8.533 8.533-21.76 8.533-30.293 0s-8.532-21.76 0-30.293l55.894-55.893C297.387 799.575 256 724.91 256 640h512c0 84.908-41.386 160-105.386 206.508zM426.667 725.334H384V768h42.667v-42.666zm213.333 0h-42.667V768H640v-42.666z"/><glyph unicode="" d="M853.333 853.334H170.666c-46.933 0-84.907-38.4-84.907-85.333L85.33 0 256 170.67H853.33c46.933 0 85.333 38.4 85.333 85.333v512c0 46.934-38.4 85.334-85.333 85.334zm-298.666-384h-85.333v256h85.333v-256zm0-170.667h-85.333V384h85.333v-85.333z"/><glyph unicode="" d="M810.667 426.667h-85.333v-128h-128v-85.333h213.333v213.333zm-512 128h128V640H213.334V426.667h85.333v128zm597.333 256H128c-46.933 0-85.333-38.4-85.333-85.333V128c0-46.932 38.4-85.332 85.333-85.332h768c46.933 0 85.333 38.4 85.333 85.333v597.334c0 46.933-38.4 85.333-85.333 85.333zm0-683.093H128V725.76h768V127.575z"/><glyph unicode="" d="M810.667 810.667H213.334c-46.933 0-85.333-38.4-85.333-85.333V128c0-46.932 38.4-85.332 85.334-85.332h597.333C857.6 42.668 896 81.068 896 128v597.334c0 46.933-38.4 85.333-85.333 85.333zM384 213.334h-85.333V512H384V213.335zm170.667 0h-85.333V640h85.333V213.335zm170.666 0H640V384h85.333V213.335z"/><glyph unicode="" d="M810.667 810.667H632.32C614.4 860.16 567.467 896 512 896s-102.4-35.84-120.32-85.333H213.333c-46.933 0-85.333-38.4-85.333-85.333V128c0-46.932 38.4-85.332 85.333-85.332h597.333C857.6 42.668 896 81.068 896 128v597.334c0 46.933-38.4 85.333-85.334 85.333zm-298.667 0c23.467 0 42.667-19.2 42.667-42.667s-19.2-42.667-42.667-42.667-42.667 19.2-42.667 42.667 19.2 42.667 42.667 42.667zM512 640c70.827 0 128-57.173 128-128s-57.173-128-128-128-128 57.173-128 128 57.173 128 128 128zm256-512H256v59.733C256 273.066 426.667 320 512 320s256-46.933 256-132.267V128z"/><glyph unicode="" d="M810.667 810.667H632.32C614.4 860.16 567.467 896 512 896s-102.4-35.84-120.32-85.333H213.333c-46.933 0-85.333-38.4-85.333-85.333V128c0-46.932 38.4-85.332 85.333-85.332h597.333C857.6 42.668 896 81.068 896 128v597.334c0 46.933-38.4 85.333-85.334 85.333zm-256-640h-85.333V256h85.333v-85.333zm0 170.667h-85.333v256h85.333v-256zm-42.667 384c-23.467 0-42.667 19.2-42.667 42.667s19.2 42.668 42.667 42.668 42.667-19.2 42.667-42.667-19.2-42.666-42.667-42.666z"/><glyph unicode="" d="M810.667 810.667H632.32C614.4 860.16 567.467 896 512 896s-102.4-35.84-120.32-85.333H213.333c-46.933 0-85.333-38.4-85.333-85.333V128c0-46.932 38.4-85.332 85.333-85.332h597.333C857.6 42.668 896 81.068 896 128v597.334c0 46.933-38.4 85.333-85.334 85.333zm-298.667 0c23.467 0 42.667-19.2 42.667-42.667s-19.2-42.667-42.667-42.667-42.667 19.2-42.667 42.667 19.2 42.667 42.667 42.667zm170.667-512H512v-128L298.667 384 512 597.333v-128h170.667V298.666z"/><glyph unicode="" d="M810.667 810.667H632.32C614.4 860.16 567.467 896 512 896s-102.4-35.84-120.32-85.333H213.333c-46.933 0-85.333-38.4-85.333-85.333V128c0-46.932 38.4-85.332 85.333-85.332h597.333C857.6 42.668 896 81.068 896 128v597.334c0 46.933-38.4 85.333-85.334 85.333zm-298.667 0c23.467 0 42.667-19.2 42.667-42.667s-19.2-42.667-42.667-42.667-42.667 19.2-42.667 42.667 19.2 42.667 42.667 42.667zm0-640L298.667 384h128v170.667h170.667V384h128L512 170.667z"/><glyph unicode="" d="M810.667 810.667H632.32C614.4 860.16 567.467 896 512 896s-102.4-35.84-120.32-85.333H213.333c-46.933 0-85.333-38.4-85.333-85.333V128c0-46.932 38.4-85.332 85.333-85.332h597.333C857.6 42.668 896 81.068 896 128v597.334c0 46.933-38.4 85.333-85.334 85.333zm-298.667 0c23.467 0 42.667-19.2 42.667-42.667s-19.2-42.667-42.667-42.667-42.667 19.2-42.667 42.667 19.2 42.667 42.667 42.667zm-85.333-597.333L256 384l60.16 60.16 110.507-110.08L707.84 615.255 768 554.667 426.667 213.334z"/><glyph unicode="" d="M810.667 810.667H632.32C614.4 860.16 567.467 896 512 896s-102.4-35.84-120.32-85.333H213.333c-46.933 0-85.333-38.4-85.333-85.333V128c0-46.932 38.4-85.332 85.333-85.332h597.333C857.6 42.668 896 81.068 896 128v597.334c0 46.933-38.4 85.333-85.334 85.333zm-298.667 0c23.467 0 42.667-19.2 42.667-42.667s-19.2-42.667-42.667-42.667-42.667 19.2-42.667 42.667 19.2 42.667 42.667 42.667zm85.333-597.333H298.666v85.333h298.667v-85.333zm128 170.666H298.666v85.333h426.667V384zm0 170.667H298.666V640h426.667v-85.333z"/><glyph unicode="" d="M512 682.667v-128l170.667 170.667L512 896V768c-188.587 0-341.333-152.746-341.333-341.332 0-66.987 19.627-129.28 52.907-181.76l62.293 62.293C266.667 342.615 256 383.575 256 426.67c0 141.227 114.773 256 256 256zm288.427-74.24l-62.293-62.293C756.907 510.294 768 469.76 768 426.667c0-141.227-114.772-256-256-256v128L341.335 128 512-42.667v128c188.588 0 341.334 152.747 341.334 341.333 0 66.987-19.627 129.28-52.907 181.76z"/><glyph unicode="" d="M825.6 510.294C796.587 657.494 667.307 768 512 768c-123.307 0-230.4-69.972-283.733-172.372C99.84 581.975 0 473.175 0 341.335c0-141.227 114.773-256 256-256h554.667c117.76 0 213.333 95.573 213.333 213.333 0 112.64-87.467 203.947-198.4 211.627zM597.333 384V213.333H426.666V384h-128L512 597.333 725.33 384h-128z"/><glyph unicode="" d="M768 853.334H256c-46.933 0-85.333-38.4-85.333-85.333V85.335C170.667 38.4 209.067 0 256 0h512c46.933 0 85.333 38.4 85.333 85.334V768c0 46.934-38.4 85.334-85.333 85.334zM256 768h213.333V426.667l-106.667 64-106.667-64V768z"/><glyph unicode="" d="M725.333 810.667H298.666c-46.933 0-84.907-38.4-84.907-85.333l-.428-682.667 298.667 128 298.666-128v682.667c0 46.933-38.4 85.333-85.333 85.333zm0-640L512 263.68l-213.333-93.013v554.667h426.667V170.667z"/><glyph unicode="" d="M725.333 810.667H298.666c-46.933 0-84.907-38.4-84.907-85.333l-.428-682.667 298.667 128 298.666-128v682.667c0 46.933-38.4 85.333-85.333 85.333z"/><glyph unicode="" d="M853.333 597.334H733.44c-19.2 33.28-45.653 61.867-77.653 83.627l69.547 69.548-60.16 60.16-92.587-92.587c-19.627 4.694-39.68 7.254-60.587 7.254s-40.96-2.56-60.16-7.253l-93.013 92.588-60.16-60.16 69.12-69.547c-31.573-21.76-58.027-50.346-77.227-83.626H170.667V512h89.173c-2.133-14.08-3.84-28.16-3.84-42.666v-42.667h-85.333v-85.333H256v-42.667c0-14.507 1.707-28.587 3.84-42.667h-89.173v-85.333H290.56c44.373-76.373 126.72-128 221.44-128s177.067 51.627 221.44 128h119.893V256H764.16c2.133 14.08 3.84 28.16 3.84 42.667v42.667h85.333v85.333H768v42.667c0 14.507-1.707 28.587-3.84 42.667h89.173v85.334zM597.333 256H426.666v85.333h170.667V256zm0 170.667H426.666V512h170.667v-85.333z"/><glyph unicode="" d="M810.667 597.334L640 426.667h128c0-141.227-114.773-256-256-256-43.093 0-84.053 10.667-119.467 29.867L330.24 138.24C382.72 104.96 445.013 85.335 512 85.335c188.587 0 341.333 152.747 341.333 341.333h128L810.666 597.334zM256 426.667c0 141.227 114.773 256 256 256 43.093 0 84.053-10.667 119.467-29.867l62.293 62.293C641.28 748.373 578.987 768 512 768c-188.587 0-341.333-152.747-341.333-341.333h-128L213.334 256 384 426.667H256z"/><glyph unicode="" d="M512 853.334c-235.52 0-426.667-191.147-426.667-426.667S276.48 0 512 0s426.667 191.147 426.667 426.667S747.52 853.334 512 853.334zm-85.333-640L213.334 426.667l60.16 60.16L426.667 334.08l323.84 323.84 60.16-60.587-384-384z"/><glyph unicode="" d="M768 853.334H256c-46.933 0-85.333-38.4-85.333-85.333V85.335C170.667 38.4 209.067 0 256 0h512c46.933 0 85.333 38.4 85.333 85.334V768c0 46.934-38.4 85.334-85.333 85.334zM256 768h213.333V426.667l-106.667 64-106.667-64V768z"/><glyph unicode="" d="M853.333 768H170.666c-47.36 0-84.907-37.973-84.907-85.333l-.428-512c0-47.36 37.973-85.333 85.333-85.333h682.667c47.36 0 85.333 37.973 85.333 85.333v512c0 47.36-37.973 85.333-85.333 85.333zm0-597.333H170.666v256h682.667v-256zm0 426.667H170.666v85.333h682.667v-85.333z"/><glyph unicode="" d="M128 384h341.333v426.667H128V384zm0-341.333h341.333v256H128v-256zm426.667 0H896v426.667H554.667V42.667zm0 768v-256H896v256H554.667z"/><glyph unicode="" d="M256 128c0-46.933 38.4-85.333 85.333-85.333h341.333C729.6 42.667 768 81.067 768 128v512H256V128zm554.667 640H661.334l-42.667 42.667H405.334L362.667 768H213.334v-85.333h597.333V768z"/><glyph unicode="" d="M597.333 853.334H256c-46.933 0-84.907-38.4-84.907-85.333l-.427-682.666C170.666 38.4 208.64 0 255.573 0H768c46.933 0 85.333 38.4 85.333 85.334v512l-256 256zm85.334-682.667H341.334V256h341.333v-85.333zm0 170.667H341.334v85.333h341.333v-85.333zm-128 213.333v234.667l234.667-234.667H554.667z"/><glyph unicode="" d="M853.333 384H170.666C147.2 384 128 364.8 128 341.333v-256c0-23.467 19.2-42.667 42.666-42.667h682.667c23.467 0 42.667 19.2 42.667 42.667v256C896 364.8 876.8 384 853.333 384zM298.667 128c-46.933 0-85.333 38.4-85.333 85.333s38.4 85.333 85.333 85.333S384 260.266 384 213.333 345.6 128 298.667 128zm554.666 682.667H170.666C147.2 810.667 128 791.467 128 768V512c0-23.467 19.2-42.667 42.666-42.667h682.667C876.8 469.333 896 488.533 896 512v256c0 23.467-19.2 42.667-42.667 42.667zm-554.666-256c-46.933 0-85.333 38.4-85.333 85.333s38.4 85.333 85.333 85.333S384 686.933 384 640s-38.4-85.333-85.333-85.333z"/><glyph unicode="" d="M768 640l-60.16 60.16-270.507-270.507 60.16-60.16L768 640zm180.907 60.16L497.494 248.747l-178.347 177.92-60.16-60.16L497.494 128l512 512-60.587 60.16zM17.493 366.507L256 128l60.16 60.16L78.08 426.667l-60.587-60.16z"/><glyph unicode="" d="M384 248.747l-177.92 177.92-60.587-60.16L384 128l512 512-60.16 60.16z"/><glyph unicode="" d="M725.333 426.667H512V213.334h213.333v213.333zM682.667 896v-85.333H341.334V896H256v-85.333h-42.666c-47.36 0-84.907-38.4-84.907-85.333L128 128c0-46.932 37.973-85.332 85.333-85.332h597.333C857.6 42.668 896 81.068 896 128v597.334c0 46.933-38.4 85.333-85.334 85.333H768V896h-85.334zm128-768H213.334v469.333h597.333V128z"/><glyph unicode="" d="M430.507 273.494l60.16-60.16L704 426.667 490.667 640l-60.16-60.16 110.08-110.507H128V384h412.587l-110.08-110.507zm380.16 537.173H213.334c-47.36 0-85.333-38.4-85.333-85.333V554.667h85.334v170.667h597.333V128H213.334V298.67H128V128c0-46.932 37.974-85.332 85.334-85.332h597.333C857.6 42.668 896 81.068 896 128v597.334c0 46.933-38.4 85.333-85.333 85.333z"/><glyph unicode="" d="M512 473.6c-26.027 0-46.933-20.907-46.933-46.933s20.907-46.933 46.933-46.933c26.027 0 46.933 20.907 46.933 46.933S538.026 473.6 512 473.6zm0 379.734c-235.52 0-426.667-191.147-426.667-426.667S276.48 0 512 0s426.667 191.147 426.667 426.667S747.52 853.334 512 853.334zm93.44-520.107L256 170.667l162.56 349.44L768 682.667l-162.56-349.44z"/><glyph unicode="" d="M874.667 469.334h-64V640c0 46.934-38.4 85.334-85.333 85.334H554.667v64C554.667 848.214 506.88 896 448 896s-106.667-47.786-106.667-106.666v-64H170.666c-46.933 0-84.907-38.4-84.907-85.333V477.87h63.572c63.573 0 115.2-51.627 115.2-115.2s-51.627-115.2-115.2-115.2h-64V85.335c0-46.933 38.4-85.333 85.333-85.333h162.133v64c0 63.573 51.627 115.2 115.2 115.2s115.2-51.627 115.2-115.2v-64H725.33c46.934 0 85.334 38.4 85.334 85.333v170.667h64c58.88 0 106.667 47.787 106.667 106.667s-47.786 106.666-106.666 106.666z"/><glyph unicode="" d="M626.773 209.067c-31.573-24.747-72.533-38.4-114.773-38.4s-83.2 13.653-114.773 38.4c-9.387 7.253-22.613 5.547-29.867-3.84s-5.547-22.613 3.84-29.867C410.027 144.64 460.373 128 512 128s101.973 16.64 141.227 46.933c9.387 7.253 11.093 20.48 3.84 29.867-7.253 9.813-20.907 11.093-30.293 4.267zm-221.44 196.267c0-23.564-19.103-42.667-42.667-42.667S320 381.77 320 405.334 339.1 448 362.665 448s42.667-19.102 42.667-42.666zM512 938.667c-282.88 0-512-229.12-512-512s229.12-512 512-512 512 229.12 512 512-229.12 512-512 512zm339.627-632.32C805.12 146.774 669.44 30.72 508.587 30.72c-161.28 0-296.96 116.053-343.04 276.053-50.773 4.693-90.88 50.347-90.88 107.52 0 54.187 36.267 98.56 84.053 106.667 89.173 62.293 162.133 148.907 174.507 215.467v.427c57.6-112.213 268.8-221.44 504.747-215.893l12.8 1.28c54.613 0 98.56-48.64 98.56-108.372 0-58.88-43.52-107.093-97.707-107.52zM704 405.334c0-23.564-19.103-42.667-42.667-42.667s-42.667 19.103-42.667 42.667S637.77 448 661.333 448 704 428.9 704 405.335z"/><glyph unicode="" d="M704 810.667c-74.24 0-145.493-34.56-192-89.173-46.507 54.613-117.76 89.173-192 89.173-131.413 0-234.667-103.253-234.667-234.667 0-161.28 145.067-292.693 364.8-492.373L512 27.734l61.867 56.32C793.6 283.307 938.667 414.72 938.667 576c0 131.414-103.253 234.668-234.667 234.668zM516.267 147.2L512 142.933l-4.267 4.267C304.64 331.093 170.666 452.693 170.666 576c0 85.333 64 149.333 149.333 149.333 65.706 0 129.706-42.24 152.32-100.693h79.786C574.293 683.093 638.293 725.333 704 725.333c85.332 0 149.332-64 149.332-149.333 0-123.307-133.973-244.907-337.067-428.8z"/><glyph unicode="" d="M512 27.734l-61.867 56.32C230.4 283.307 85.333 414.72 85.333 576 85.333 707.415 188.586 810.67 320 810.67c74.24 0 145.493-34.56 192-89.173 46.507 54.613 117.76 89.173 192 89.173 131.413 0 234.667-103.253 234.667-234.667 0-161.28-145.067-292.692-364.8-492.372L512 27.735z"/><glyph unicode="" d="M853.333 102.827v494.507l-256 256H256c-46.933 0-84.907-38.4-84.907-85.333l-.427-682.666C170.666 38.4 208.64 0 255.573 0H768c19.2 0 36.267 6.4 50.773 17.068L629.76 206.08C595.627 183.895 555.52 170.67 512 170.67c-117.76 0-213.333 95.573-213.333 213.333S394.24 597.335 512 597.335 725.333 501.76 725.333 384c0-43.52-13.227-83.626-35.413-117.332l163.413-163.84zM384 384c0-70.827 57.173-128 128-128s128 57.173 128 128-57.173 128-128 128-128-57.173-128-128z"/><glyph unicode="" d="M469.333 682.667c58.88 0 112.213-23.893 151.04-62.293L512 512h256v256l-87.467-87.466C626.346 734.72 551.68 768 469.333 768 318.72 768 194.986 656.64 174.08 512h86.187C279.894 609.28 366.08 682.67 469.334 682.67zm240.64-389.973c28.16 38.4 47.787 84.053 54.613 133.973H678.4C658.77 329.387 572.585 256 469.33 256c-58.88 0-112.213 23.893-151.04 62.293l108.373 108.373h-256v-256l87.467 87.467c54.187-54.187 128.853-87.467 211.2-87.467 66.133 0 127.147 21.76 176.64 58.027L853.332 21.76l63.573 63.573-206.933 207.36z"/><glyph unicode="" d="M384 640h-85.333v-85.333H384V640zm0-170.666h-85.333V384H384v85.334zm0 341.333c-47.36 0-85.333-38.4-85.333-85.333H384v85.333zm170.667-512h-85.333v-85.333h85.333v85.333zm256 512v-85.333H896c0 46.933-38.4 85.333-85.333 85.333zm-256 0h-85.333v-85.333h85.333v85.333zM384 213.334v85.333h-85.333c0-46.933 37.973-85.333 85.333-85.333zM810.667 384H896v85.333h-85.333V384zm0 170.667H896V640h-85.333v-85.333zm0-341.333c46.933 0 85.333 38.4 85.333 85.333h-85.333v-85.333zM213.333 640H128V128c0-46.933 37.973-85.333 85.333-85.333h512V128h-512v512zM640 725.334h85.333v85.333H640v-85.333zm0-512h85.333v85.333H640v-85.333z"/><glyph unicode="" d="M128 384h85.333v85.333H128V384zm0-170.666h85.333v85.333H128v-85.333zm85.333-170.667V128H128c0-46.933 37.973-85.333 85.333-85.333zm-85.333 512h85.333V640H128v-85.333zm512-512h85.333V128H640V42.667zm170.667 768H384c-47.36 0-85.333-38.4-85.333-85.333V298.667c0-46.933 37.973-85.333 85.333-85.333h426.667c46.933 0 85.333 38.4 85.333 85.333v426.667c0 46.933-38.4 85.333-85.333 85.333zm0-512H384v426.667h426.667V298.667zm-341.334-256h85.333V128h-85.333V42.667zm-170.666 0H384V128h-85.333V42.667z"/><glyph unicode="" d="M810.667 554.667H640v256H384v-256H213.333L512 256l298.667 298.667zm-597.334-384V85.334h597.333v85.333H213.333z"/><glyph unicode="" d="M512 201.814L775.68 42.667l-69.973 299.947 232.96 201.813-306.773 26.027L512 853.334 392.11 570.454 85.335 544.427l232.96-201.813-69.973-299.947z"/><glyph unicode="" d="M512 853.334c-235.52 0-426.667-191.147-426.667-426.667S276.48 0 512 0s426.667 191.147 426.667 426.667S747.52 853.334 512 853.334zM341.333 192c-58.88 0-106.667 47.787-106.667 106.667s47.787 106.667 106.667 106.667S448 357.547 448 298.667 400.213 192 341.333 192zm64 405.334C405.333 656.214 453.12 704 512 704s106.667-47.786 106.667-106.666S570.88 490.667 512 490.667s-106.667 47.787-106.667 106.667zM682.667 192C623.787 192 576 239.787 576 298.667s47.787 106.667 106.667 106.667 106.667-47.787 106.667-106.667S741.547 192 682.667 192z"/><glyph unicode="" d="M512 853.334c-235.52 0-426.667-191.147-426.667-426.667S276.48 0 512 0s426.667 191.147 426.667 426.667S747.52 853.334 512 853.334zM554.667 128h-85.333v85.333h85.333V128zm88.32 330.667l-38.4-39.253c-30.72-31.147-49.92-56.747-49.92-120.747h-85.333V320c0 46.933 19.2 89.6 49.92 120.747l52.907 53.76c15.788 15.36 25.174 36.693 25.174 60.16C597.334 601.6 558.934 640 512 640s-85.332-38.4-85.332-85.333h-85.333c0 94.293 76.373 170.667 170.667 170.667S682.67 648.96 682.67 554.667c0-37.547-15.36-71.68-39.68-96z"/><glyph unicode="" d="M622.507 597.334L512 486.827 401.493 597.334l-60.16-60.16L451.84 426.667 341.333 316.16l60.16-60.16L512 366.507 622.507 256l60.16 60.16L572.16 426.667l110.507 110.507-60.16 60.16zM512 853.334c-235.947 0-426.667-190.72-426.667-426.667S276.053 0 512 0s426.667 190.72 426.667 426.667S747.947 853.334 512 853.334zm0-768c-188.16 0-341.333 153.173-341.333 341.333S323.84 768 512 768s341.333-153.173 341.333-341.333S700.16 85.334 512 85.334z"/><glyph unicode="" d="M554.667 810.667c-212.053 0-384-171.947-384-384h-128L208.64 260.694l2.987-5.973L384 426.67H256c0 165.12 133.547 298.667 298.667 298.667s298.667-133.547 298.667-298.667S719.787 128 554.667 128c-82.347 0-157.013 33.708-210.773 87.894l-60.587-60.587c69.547-69.547 165.12-112.64 271.36-112.64 212.053 0 384 171.947 384 384s-171.947 384-384 384zM512 597.334V384L694.613 275.63l30.72 51.627L576 416.002v181.333h-64z"/><glyph unicode="" d="M426.667 85.334v256h170.667v-256h213.333v341.333h128L512 810.667l-426.667-384h128V85.334z"/><glyph unicode="" d="M768 597.334h-42.667v85.333C725.333 800.427 629.76 896 512 896s-213.333-95.573-213.333-213.333v-85.333H256c-46.933 0-85.333-38.4-85.333-85.333V85.335C170.667 38.4 209.067 0 256 0h512c46.933 0 85.333 38.4 85.333 85.334V512c0 46.934-38.4 85.334-85.333 85.334zm-256-384c-46.933 0-85.333 38.4-85.333 85.333S465.067 384 512 384s85.333-38.4 85.333-85.333-38.4-85.333-85.333-85.333zm132.267 384H379.734v85.333c0 72.96 59.307 132.267 132.267 132.267S644.27 755.627 644.27 682.667v-85.333z"/><glyph unicode="" d="M469.333 213.334h85.333v256h-85.333v-256zm42.667 640c-235.52 0-426.667-191.147-426.667-426.667S276.48 0 512 0s426.667 191.147 426.667 426.667S747.52 853.334 512 853.334zm0-768c-188.16 0-341.333 153.173-341.333 341.333S323.84 768 512 768s341.333-153.173 341.333-341.333S700.16 85.334 512 85.334zm-42.667 469.333h85.333V640h-85.333v-85.333z"/><glyph unicode="" d="M512 853.334c-235.52 0-426.667-191.147-426.667-426.667S276.48 0 512 0s426.667 191.147 426.667 426.667S747.52 853.334 512 853.334zm42.667-640h-85.333v256h85.333v-256zm0 341.333h-85.333V640h85.333v-85.333z"/><glyph unicode="" d="M896 810.24H128c-46.933 0-85.333-38.4-85.333-85.333v-170.24H128V725.76h768V127.147H128v171.52H42.667V127.574c0-46.933 38.4-84.48 85.333-84.48h768c46.933 0 85.333 37.547 85.333 84.48v597.333c0 47.36-38.4 85.333-85.333 85.333zM469.333 256L640 426.667 469.333 597.334v-128H42.666V384h426.667V256z"/><glyph unicode="" d="M753.493 600.32L512 841.813 270.507 600.32c-133.12-133.12-133.12-349.44 0-482.56C337.067 51.2 424.534 17.92 512 17.92s174.933 33.28 241.493 99.84c133.12 133.12 133.12 349.44 0 482.56zM512 102.827c-68.267 0-132.693 26.453-180.907 75.093C282.453 226.56 256 290.56 256 358.827s26.453 132.693 75.093 180.907L512 721.067v-618.24z"/><glyph unicode="" d="M752.213 689.494c-15.36 21.76-40.96 35.84-69.547 35.84l-469.333-.427C166.4 724.907 128 686.934 128 640V213.333c0-46.933 38.4-84.907 85.333-84.907L682.666 128c28.587 0 54.187 14.08 69.547 35.84l186.453 262.826-186.453 262.827zm-69.546-476.16H213.334V640h469.333L834.134 426.67 682.667 213.335z"/><glyph unicode="" d="M752.213 689.494c-15.36 21.76-40.96 35.84-69.547 35.84l-469.333-.427C166.4 724.907 128 686.934 128 640V213.333c0-46.933 38.4-84.907 85.333-84.907L682.666 128c28.587 0 54.187 14.08 69.547 35.84l186.453 262.826-186.453 262.827z"/><glyph unicode="" d="M511.573 853.334c-235.52 0-426.24-191.147-426.24-426.667S276.053 0 511.573 0C747.52 0 938.666 191.147 938.666 426.667S747.52 853.334 511.573 853.334zm295.68-256H681.386c-13.653 53.333-33.28 104.533-58.88 151.893 78.507-26.88 143.787-81.493 184.747-151.893zM512 766.294c35.413-51.2 63.147-107.947 81.493-168.96H430.506c18.347 61.013 46.08 117.76 81.493 168.96zm-330.24-424.96c-6.827 27.307-11.093 55.893-11.093 85.333s4.267 58.027 11.093 85.333h144.213C322.56 483.84 320 455.68 320 426.667s2.56-57.173 5.973-85.333H181.76zM216.747 256h125.867c13.653-53.333 33.28-104.533 58.88-151.893-78.507 26.88-143.787 81.067-184.747 151.893zm125.866 341.334H216.746c40.96 70.827 106.24 125.013 184.747 151.893-25.6-47.36-45.227-98.56-58.88-151.893zM512 87.04c-35.413 51.2-63.147 107.947-81.493 168.96h162.987C575.147 194.987 547.414 138.24 512 87.04zm99.84 254.294H412.16c-3.84 28.16-6.827 56.32-6.827 85.333s2.987 57.6 6.827 85.333h199.68c3.84-27.733 6.827-56.32 6.827-85.333s-2.987-57.173-6.827-85.333zm10.667-237.227c25.6 47.36 45.227 98.56 58.88 151.893h125.867c-40.96-70.4-106.24-125.013-184.747-151.893zm75.52 237.227c3.413 28.16 5.973 56.32 5.973 85.333s-2.56 57.173-5.973 85.333H842.24c6.827-27.307 11.093-55.893 11.093-85.333s-4.267-58.027-11.093-85.333H698.027z"/><glyph unicode="" d="M810.667 128H213.334v597.333H512v85.333H213.335c-47.36 0-85.333-38.4-85.333-85.333V128c0-46.933 37.974-85.333 85.334-85.333h597.333C857.6 42.667 896 81.067 896 128v298.667h-85.333V128zM597.333 810.667v-85.333h153.173L331.093 305.92l60.16-60.16 419.413 419.414V512H896V810.67H597.33z"/><glyph unicode="" d="M128 384h85.333v85.333H128V384zm0-170.666h85.333v85.333H128v-85.333zm0 341.333h85.333V640H128v-85.333zM298.667 384H896v85.333H298.667V384zm0-170.666H896v85.333H298.667v-85.333zm0 426.666v-85.333H896V640H298.667z"/><glyph unicode="" d="M512 213.334c46.933 0 85.333 38.4 85.333 85.333S558.933 384 512 384s-85.333-38.4-85.333-85.333 38.4-85.333 85.333-85.333zm256 384h-42.667v85.333C725.333 800.427 629.76 896 512 896s-213.333-95.573-213.333-213.333h81.067c0 72.96 59.307 132.267 132.267 132.267S644.27 755.627 644.27 682.667v-85.333H256c-46.932 0-85.332-38.4-85.332-85.333V85.335C170.668 38.4 209.068 0 256 0h512c46.934 0 85.334 38.4 85.334 85.334V512c0 46.934-38.4 85.334-85.333 85.334zm0-512H256V512h512V85.335z"/><glyph unicode="" d="M768 597.334h-42.667v85.333C725.333 800.427 629.76 896 512 896s-213.333-95.573-213.333-213.333v-85.333H256c-46.933 0-85.333-38.4-85.333-85.333V85.335C170.667 38.4 209.067 0 256 0h512c46.933 0 85.333 38.4 85.333 85.334V512c0 46.934-38.4 85.334-85.333 85.334zm-256 217.6c72.96 0 132.267-59.307 132.267-132.267v-85.333H384v85.333h-4.267c0 72.96 59.307 132.267 132.267 132.267zm256-729.6H256V512h512V85.335zm-256 128c46.933 0 85.333 38.4 85.333 85.333S558.933 384 512 384s-85.333-38.4-85.333-85.333 38.4-85.333 85.333-85.333z"/><glyph unicode="" d="M768 597.334h-42.667v85.333C725.333 800.427 629.76 896 512 896s-213.333-95.573-213.333-213.333v-85.333H256c-46.933 0-85.333-38.4-85.333-85.333V85.335C170.667 38.4 209.067 0 256 0h512c46.933 0 85.333 38.4 85.333 85.334V512c0 46.934-38.4 85.334-85.333 85.334zm-256-384c-46.933 0-85.333 38.4-85.333 85.333S465.067 384 512 384s85.333-38.4 85.333-85.333-38.4-85.333-85.333-85.333zm132.267 384H379.734v85.333c0 72.96 59.307 132.267 132.267 132.267S644.27 755.627 644.27 682.667v-85.333z"/><glyph unicode="" d="M913.493 444.587l-384 384c-15.36 15.36-36.693 24.747-60.16 24.747H170.666c-46.933 0-85.333-38.4-85.333-85.333V469.335c0-23.467 9.387-44.8 25.173-60.587l384-384C509.866 9.387 531.2 0 554.666 0s44.8 9.387 60.16 25.173L913.493 323.84c15.787 15.36 25.173 36.693 25.173 60.16s-9.813 45.227-25.173 60.587zM234.667 640c-35.413 0-64 28.587-64 64s28.587 64 64 64 64-28.587 64-64-28.587-64-64-64zm502.186-352.853L554.666 104.96 372.48 287.147c-19.2 19.627-31.148 46.08-31.148 75.52 0 58.88 47.787 106.667 106.667 106.667 29.44 0 56.32-11.947 75.52-31.573l31.146-30.72 31.147 31.148c19.2 19.2 46.08 31.147 75.52 31.147 58.88 0 106.667-47.787 106.667-106.667 0-29.44-11.947-56.32-31.147-75.52z"/><glyph unicode="" d="M853.333 682.667H426.666v-256h-85.333V768h256v170.667H256v-256h-85.333c-46.933 0-85.333-38.4-85.333-85.333v-512C85.334 38.4 123.734 0 170.667 0h682.667c46.933 0 85.333 38.4 85.333 85.334v512c0 46.933-38.4 85.333-85.333 85.333z"/><glyph unicode="" d="M597.333 853.334H256c-46.933 0-84.907-38.4-84.907-85.333l-.427-682.666C170.666 38.4 208.64 0 255.573 0H768c46.933 0 85.333 38.4 85.333 85.334v512l-256 256zM682.667 256h-128V128h-85.333v128h-128v85.333h128v128h85.333v-128h128V256zm-128 298.667v234.667l234.667-234.667H554.667z"/><glyph unicode="" d="M810.667 768H213.334C165.974 768 128 729.6 128 682.667v-512c0-46.933 37.974-85.333 85.334-85.333H384v85.333H213.335v426.667h597.333V170.667H640V85.334h170.667c46.933 0 85.333 38.4 85.333 85.333v512C896 729.6 858.027 768 810.667 768zM512 512L341.333 341.333h128v-256h85.333v256h128L512 512z"/><glyph unicode="" d="M810.667 128H213.334v597.333H512v85.333H213.335c-47.36 0-85.333-38.4-85.333-85.333V128c0-46.933 37.974-85.333 85.334-85.333h597.333C857.6 42.667 896 81.067 896 128v298.667h-85.333V128zM597.333 810.667v-85.333h153.173L331.093 305.92l60.16-60.16 419.413 419.414V512H896V810.67H597.33z"/><glyph unicode="" d="M426.667 554.667h170.667v128h128L512 896 298.67 682.667h128v-128zM384 512H256v128L42.667 426.667 256 213.334v128h128V512zm597.333-85.333L768 640V512H640V341.333h128v-128l213.333 213.333zm-384-128H426.666v-128h-128L512-42.666 725.33 170.667h-128v128z"/><glyph unicode="" d="M469.333 597.334c-70.827 0-128-57.173-128-128s57.173-128 128-128 128 57.173 128 128-57.173 128-128 128zm341.334 213.333H213.334c-46.933 0-85.333-38.4-85.333-85.333V128c0-46.932 38.4-85.332 85.334-85.332h597.333C857.6 42.668 896 81.068 896 128v597.334c0 46.933-38.4 85.333-85.333 85.333zM750.507 128L587.094 291.413C552.96 269.226 512.854 256 469.334 256 351.574 256 256 351.573 256 469.333s95.574 213.333 213.334 213.333 213.333-95.573 213.333-213.333c0-43.52-13.227-83.627-35.413-117.333l163.413-163.84-60.16-60.16z"/><glyph unicode="" d="M853.333 768H170.666c-47.36 0-84.907-37.973-84.907-85.333l-.428-512c0-47.36 37.973-85.333 85.333-85.333h682.667c47.36 0 85.333 37.973 85.333 85.333v512c0 47.36-37.973 85.333-85.333 85.333zm0-597.333H170.666v256h682.667v-256zm0 426.667H170.666v85.333h682.667v-85.333z"/><glyph unicode="" d="M853.333 725.334H718.08L640 810.667H384l-78.08-85.333H170.667c-46.933 0-85.333-38.4-85.333-85.333V128c0-46.932 38.4-85.332 85.333-85.332h298.667v89.173C348.587 152.32 256 257.28 256 384h85.334c0-94.292 76.373-170.666 170.667-170.666S682.67 289.707 682.67 384H768c0-126.72-92.586-231.68-213.332-252.16V42.67h298.667c46.933 0 85.333 38.4 85.333 85.333v512c0 46.934-38.4 85.334-85.333 85.334zM597.333 384c0-46.933-38.4-85.333-85.333-85.333s-85.333 38.4-85.333 85.333v170.667C426.667 601.6 465.067 640 512 640s85.333-38.4 85.333-85.333V384z"/><glyph unicode="" d="M810.667 810.667H768V896h-85.333v-85.333H341.334V896H256v-85.333h-42.666c-47.36 0-85.333-38.4-85.333-85.333V128c0-46.932 37.974-85.332 85.334-85.332h597.333C857.6 42.668 896 81.068 896 128v597.334c0 46.933-38.4 85.333-85.333 85.333zM512 682.667c70.827 0 128-57.173 128-128s-57.173-128-128-128-128 57.173-128 128 57.173 128 128 128zm256-512H256v42.667C256 298.667 426.667 345.6 512 345.6s256-46.932 256-132.266v-42.667z"/><glyph unicode="" d="M810.24 448c14.507 0 28.587-1.28 42.667-2.987l.427 493.653L0 85.333H493.23c-1.707 14.08-2.987 28.16-2.987 42.667 0 176.64 143.36 320 320 320zm158.293-340.906c.853 6.827 1.707 13.653 1.707 20.907s-.427 14.08-1.707 20.908l45.227 35.413c3.84 3.414 5.12 8.96 2.56 13.654l-42.667 73.813c-2.56 4.693-8.107 6.4-13.227 4.693l-52.907-21.333c-11.094 8.533-23.04 15.787-36.268 20.907l-8.107 56.32c-.427 5.12-5.12 8.96-10.24 8.96h-85.333c-5.12 0-9.813-3.84-10.667-8.96l-8.107-56.32c-12.8-5.547-25.173-12.373-36.267-20.907l-52.906 21.333c-4.693 1.707-10.24 0-13.227-4.693l-42.667-73.813c-2.56-4.693-1.707-10.24 2.56-13.653l45.227-35.412c-.853-6.827-1.28-13.653-1.28-20.907s.427-14.08 1.28-20.906L606.29 71.68c-3.84-3.412-5.12-8.96-2.56-13.652l42.667-73.813c2.56-4.693 8.107-6.4 13.227-4.693L712.53.855c11.094-8.533 23.04-15.787 36.268-20.907l8.107-56.32c.853-5.12 5.12-8.96 10.667-8.96h85.333c5.12 0 9.813 3.84 10.667 8.96l8.107 56.32C884.48-14.505 896.85-7.68 907.52.855l53.332-21.333c4.693-1.707 10.24 0 13.227 4.693l42.666 73.813c2.56 4.693 1.28 10.24-2.56 13.653l-45.653 35.414zM810.24 64c-35.413 0-64 28.587-64 64s28.587 64 64 64 64-28.587 64-64-28.587-64-64-64z"/><glyph unicode="" d="M554.667 640h-85.333v-85.333h85.333V640zm0-170.666h-85.333v-256h85.333v256zm170.666 426.24L298.666 896c-46.933 0-85.333-38.4-85.333-85.332v-768c0-46.933 38.4-85.333 85.333-85.333h426.667c46.933 0 85.333 38.4 85.333 85.333v768c0 46.933-38.4 84.907-85.333 84.907zm0-767.574H298.666v597.333h426.667V128z"/><glyph unicode="" d="M512 686.934c49.493 0 89.6-40.107 89.6-89.6s-40.107-89.6-89.6-89.6-89.6 40.107-89.6 89.6 40.107 89.6 89.6 89.6zm0-384c126.72 0 260.267-62.293 260.267-89.6V166.4H251.734v46.934c0 27.307 133.547 89.6 260.267 89.6zM512 768c-94.293 0-170.667-76.373-170.667-170.667S417.706 426.666 512 426.666s170.667 76.373 170.667 170.667S606.294 768 512 768zm0-384c-113.92 0-341.333-57.173-341.333-170.667v-128h682.667v128C853.334 326.826 625.92 384 512 384z"/><glyph unicode="" d="M85.333 682.667H0V469.334h.427L0 85.334C0 38.4 38.4 0 85.333 0h768v85.334h-768v597.333zM938.667 768H597.334L512 853.333H256c-46.932 0-84.906-38.4-84.906-85.333l-.427-512c0-46.933 38.4-85.333 85.333-85.333h682.667c46.933 0 85.333 38.4 85.333 85.333v426.667C1024 729.6 985.6 768 938.667 768zm-640-469.333l192 256L640 362.24l106.667 128.427 149.333-192H298.667z"/><glyph unicode="" d="M853.333 277.334c-53.333 0-104.533 8.533-152.32 24.32-14.933 4.693-31.573 1.28-43.52-10.24l-93.867-93.867c-120.747 61.44-219.733 160-281.173 280.747l93.867 94.293c11.947 11.52 15.36 28.16 10.667 43.093-15.787 47.787-24.32 98.987-24.32 152.32 0 23.467-19.2 42.667-42.667 42.667H170.667C147.2 810.667 128 791.467 128 768c0-400.64 324.693-725.333 725.333-725.333 23.467 0 42.667 19.2 42.667 42.667v149.333c0 23.467-19.2 42.667-42.667 42.667zM512 810.667V384l128 128h256v298.667H512z"/><glyph unicode="" d="M512 810.667c-215.467 0-377.6-78.933-512-180.48L512 0l512 629.333C889.6 730.88 727.467 810.666 512 810.666zM554.667 256h-85.333v256h85.333V256zm-85.334 341.334v85.333h85.333v-85.333h-85.333z"/><glyph unicode="" d="M810.667 640H469.334V384h341.333v256zM896 810.667H128c-46.933 0-85.333-38.4-85.333-85.333V128c0-46.932 38.4-84.48 85.333-84.48h768c46.933 0 85.333 37.548 85.333 84.48v597.334c0 46.933-38.4 85.333-85.333 85.333zm0-683.093H128v598.613h768V127.574z"/><glyph unicode="" d="M810.667 768H640L303.36 229.12 192 426.667 384 768H213.333l-192-341.333 192-341.333H384l336.64 538.88L832 426.667 640 85.334h170.667l192 341.333z"/><glyph unicode="" d="M810.667 597.334H213.334c-70.827 0-128-57.173-128-128v-256H256V42.667h512v170.667H938.67v256c0 70.827-57.173 128-128 128zM682.667 128H341.334v213.333h341.333V128zm128 298.667c-23.467 0-42.667 19.2-42.667 42.667S787.2 512 810.667 512s42.667-19.2 42.667-42.666-19.2-42.667-42.667-42.667zm-42.667 384H256V640h512v170.667z"/><glyph unicode="" d="M511.573 853.334c-235.52 0-426.24-191.147-426.24-426.667S276.053 0 511.573 0C747.52 0 938.666 191.147 938.666 426.667S747.52 853.334 511.573 853.334zm.427-768c-188.587 0-341.333 152.747-341.333 341.333S323.414 768 512 768s341.333-152.747 341.333-341.333S700.586 85.334 512 85.334zM533.333 640h-64V384l224-134.4 32 52.48-192 113.92z"/><glyph unicode="" d="M896 682.667h-85.333v-384H256v-85.333c0-23.467 19.2-42.667 42.667-42.667H768L938.667 0v640c0 23.467-19.2 42.667-42.667 42.667zm-170.667-256v384c0 23.467-19.2 42.667-42.667 42.667H128c-23.468 0-42.668-19.2-42.668-42.667V213.334L256 384h426.666c23.467 0 42.667 19.2 42.667 42.668z"/><glyph unicode="" d="M768 213.334H256v85.333h512v-85.333zM768 384H256v85.333h512V384zm0 170.667H256V640h512v-85.333zM128 0l64 64 64-64 64 64 64-64 64 64 64-64 64 64 64-64 64 64 64-64 64 64 64-64v853.333l-64-64-64 64-64-64-64 64-64-64-64 64-64-64-64 64-64-64-64 64-64-64-64 64V0z"/><glyph unicode="" d="M853.333 682.667H760.32c4.693 13.227 7.68 27.733 7.68 42.667 0 70.827-57.173 128-128 128-44.8 0-83.627-23.04-106.667-57.6L512 767.147l-21.333 29.013C467.627 830.293 428.8 853.333 384 853.333c-70.827 0-128-57.173-128-128 0-14.933 2.987-29.44 7.68-42.667h-93.013c-47.36 0-84.907-37.973-84.907-85.333L85.333 128c0-47.36 37.973-85.333 85.333-85.333h682.667c47.36 0 85.333 37.973 85.333 85.333v469.333c0 47.36-37.973 85.333-85.333 85.333zM640 768c23.467 0 42.667-19.2 42.667-42.667s-19.2-42.667-42.667-42.667-42.667 19.2-42.667 42.667S616.533 768 640 768zm-256 0c23.467 0 42.667-19.2 42.667-42.667s-19.2-42.667-42.667-42.667-42.667 19.2-42.667 42.667S360.533 768 384 768zm469.333-640H170.666v85.333h682.667V128zm0 213.334H170.666v256h216.747l-88.747-120.747 69.12-49.92L512 622.934 656.21 426.667l69.12 49.92-88.747 120.747h216.747v-256z"/><glyph unicode="" d="M128 298.667h768V384H128v-85.333zM128 128h768v85.333H128V128zm0 341.334h768v85.333H128v-85.333zm0 256V640h768v85.334H128z"/><glyph unicode="" d="M42.667 42.667h938.667L512 853.334 42.67 42.667zm512 128h-85.333V256h85.333v-85.333zm0 170.667h-85.333V512h85.333V341.335z"/><glyph unicode="" d="M554.667 810.667c-212.053 0-384-171.947-384-384h-128L208.64 260.694l2.987-5.973L384 426.67H256c0 165.12 133.547 298.667 298.667 298.667s298.667-133.547 298.667-298.667S719.787 128 554.667 128c-82.347 0-157.013 33.708-210.773 87.894l-60.587-60.587c69.547-69.547 165.12-112.64 271.36-112.64 212.053 0 384 171.947 384 384s-171.947 384-384 384zM512 597.334V384L694.613 275.63l30.72 51.627L576 416.002v181.333h-64z"/><glyph unicode="" d="M512 853.334c-165.12 0-298.667-133.547-298.667-298.667C213.333 330.667 512 0 512 0s298.667 330.667 298.667 554.667c0 165.12-133.547 298.667-298.667 298.667zM512 448c-58.88 0-106.667 47.787-106.667 106.667S453.12 661.334 512 661.334s106.667-47.787 106.667-106.667S570.88 448 512 448z"/><glyph unicode="" d="M511.573 853.334c-235.52 0-426.24-191.147-426.24-426.667S276.053 0 511.573 0C747.52 0 938.666 191.147 938.666 426.667S747.52 853.334 511.573 853.334zm.427-768c-188.587 0-341.333 152.747-341.333 341.333S323.414 768 512 768s341.333-152.747 341.333-341.333S700.586 85.334 512 85.334zM533.333 640h-64V384l224-134.4 32 52.48-192 113.92z"/><glyph unicode="" d="M661.333 341.334h-33.707l-11.947 11.52c41.812 48.64 66.986 111.787 66.986 180.48 0 153.173-124.16 277.333-277.333 277.333S128 686.507 128 533.334 252.16 256 405.333 256c68.693 0 131.84 25.174 180.48 66.988l11.52-11.947v-33.706L810.666 64.427 874.24 128 661.33 341.333zm-256 0c-106.24 0-192 85.76-192 192s85.76 192 192 192 192-85.76 192-192-85.76-192-192-192z"/><glyph unicode="" d="M512 512c-46.933 0-85.333-38.4-85.333-85.333s38.4-85.333 85.333-85.333 85.333 38.4 85.333 85.333S558.933 512 512 512zm298.667 298.667H213.334c-47.36 0-85.333-38.4-85.333-85.333V128c0-46.932 37.974-85.332 85.334-85.332h597.333c47.36 0 85.333 38.4 85.333 85.333v597.334c0 46.933-37.973 85.333-85.333 85.333zm-74.667-384c0-9.813-.853-19.627-2.133-29.013l63.147-49.493c5.547-4.692 7.253-12.8 3.413-19.2L740.694 225.71c-3.84-6.4-11.52-8.96-18.347-6.4l-74.24 29.867c-15.36-11.947-32.427-21.76-50.347-29.44l-11.093-78.933c-1.28-7.253-7.68-12.8-14.933-12.8H452.267c-7.253 0-13.653 5.547-14.933 12.373l-11.093 78.933c-18.346 7.68-34.986 17.493-50.346 29.44l-74.24-29.867c-6.827-2.56-14.507 0-18.347 6.4l-59.733 103.254c-3.84 6.4-2.133 14.507 3.413 19.2l63.147 49.493c-1.28 9.813-2.133 19.627-2.133 29.44s.854 19.627 2.134 29.013l-63.147 49.493c-5.547 4.693-7.253 12.8-3.413 19.2l59.733 103.253c3.84 6.4 11.52 8.96 18.347 6.4l74.24-29.867c15.36 11.946 32.427 21.76 50.347 29.44l11.094 78.932c1.28 7.253 7.68 12.8 14.933 12.8h119.467c7.253 0 13.653-5.547 14.933-12.373l11.093-78.934c18.347-7.68 34.987-17.493 50.347-29.44l74.24 29.867c6.827 2.56 14.507 0 18.347-6.4L800.427 524.8c3.84-6.4 2.133-14.507-3.413-19.2l-63.147-49.493c1.28-9.813 2.133-19.627 2.133-29.44z"/><glyph unicode="" d="M597.333 426.667C597.333 473.6 558.933 512 512 512s-85.333-38.4-85.333-85.333 38.4-85.333 85.333-85.333 85.333 38.4 85.333 85.333zm-85.333 384c-212.053 0-384-171.947-384-384H0L170.667 256l170.667 170.667h-128c0 165.12 133.547 298.667 298.667 298.667S810.67 591.787 810.67 426.667 677.12 128 512 128c-64.426 0-124.16 20.907-173.226 55.467l-60.587-61.44C343.04 72.534 424.107 42.667 512 42.667c212.053 0 384 171.947 384 384s-171.947 384-384 384z"/><glyph unicode="" d="M469.333-85.333h85.333V0h-85.333v-85.333zm-170.666 0H384V0h-85.333v-85.333zm341.333 0h85.333V0H640v-85.333zM755.627 695.04L512 938.667h-42.667v-323.84l-195.84 195.84-60.16-60.16L451.84 512 213.333 273.493l60.16-60.16 195.84 195.84V85.333H512L755.627 328.96 572.16 512l183.467 183.04zm-200.96 80.214l80.213-80.213-80.213-80.212v160.427zM634.88 328.96l-80.213-80.213v160.427l80.213-80.213z"/><glyph unicode="" d="M298.667-85.333H384V0h-85.333v-85.333zm170.666 0h85.333V0h-85.333v-85.333zm170.667 0h85.333V0H640v-85.333zM682.667 938.24l-341.333.427c-46.933 0-85.333-38.4-85.333-85.333V170.667c0-46.933 38.4-85.333 85.334-85.333h341.333c46.933 0 85.333 38.4 85.333 85.333v682.667c0 46.933-38.4 84.907-85.333 84.907zm0-682.24H341.334v512h341.333V256z"/><glyph unicode="" d="M896 810.667H128c-46.933 0-85.333-38.4-85.333-85.333V128c0-46.932 38.4-85.332 85.333-85.332h768c46.933 0 85.333 38.4 85.333 85.333v597.334c0 46.933-38.4 85.333-85.333 85.333zm0-683.093H128V725.76h768V127.575zM341.333 256H448l64-64 64 64h106.667v106.667l64 64-64 64v106.667H576l-64 64-64-64H341.333V490.667l-64-64 64-64V256zM512 554.667c70.827 0 128-57.173 128-128s-57.173-128-128-128v256z"/><glyph unicode="" d="M331.52 650.24l-65.707 54.613L34.986 426.666 265.813 148.48l65.707 54.612-185.6 223.573 185.6 223.573zM298.667 384H384v85.333h-85.333V384zm426.666 85.334H640V384h85.333v85.334zm-256-85.334h85.333v85.333h-85.333V384zm288.854 320.854L692.48 650.24l185.6-223.572-185.6-223.573 65.707-54.613L989.014 426.67 758.187 704.855z"/><glyph unicode="" d="M512 725.334c-165.12 0-298.667-133.547-298.667-298.667h85.333C298.666 544.427 394.24 640 512 640S725.33 544.427 725.33 426.667h85.333c0 165.12-133.547 298.667-298.667 298.667zm42.667-396.374c37.547 16.64 64 53.76 64 97.707 0 58.88-47.787 106.667-106.667 106.667s-106.667-47.787-106.667-106.667c0-43.52 26.453-81.067 64-97.707v-140.8L323.84 42.667 384-17.493l128 128 128-128 60.16 60.16L554.667 188.16v140.8zM512 896C253.013 896 42.667 685.653 42.667 426.667H128c0 212.053 171.947 384 384 384s384-171.947 384-384h85.333C981.333 685.654 770.986 896 512 896z"/><glyph unicode="" d="M213.333 853.334c0 23.467-19.2 42.667-42.667 42.667S128 876.8 128 853.335V682.667H42.665v-256h256v256h-85.333v170.667zM384 256c0-55.467 35.84-102.4 85.333-120.32V-42.667h85.333V135.68C604.16 153.173 640 200.107 640 256v85.333H384V256zm-341.333 0c0-55.467 35.84-102.4 85.333-120.32V-42.667h85.333V135.68c49.493 17.92 85.333 64.853 85.333 120.32v85.333h-256V256zM896 682.667v170.667C896 876.8 876.8 896 853.333 896s-42.667-19.2-42.667-42.666V682.667h-85.333v-256h256v256H896zM554.667 853.334C554.667 876.8 535.467 896 512 896s-42.667-19.2-42.667-42.666V682.667H384v-256h256v256h-85.333v170.667zM725.333 256c0-55.467 35.84-102.4 85.333-120.32V-42.667H896V135.68C945.49 153.173 981.33 200.107 981.33 256v85.333h-256V256z"/><glyph unicode="" d="M213.333 853.334c0 23.467-19.2 42.667-42.667 42.667S128 876.8 128 853.335V682.667H42.665v-256h256v256h-85.333v170.667zM384 256c0-55.467 35.84-102.4 85.333-120.32V-42.667h85.333V135.68C604.16 153.173 640 200.107 640 256v85.333H384V256zm-341.333 0c0-55.467 35.84-102.4 85.333-120.32V-42.667h85.333V135.68c49.493 17.92 85.333 64.853 85.333 120.32v85.333h-256V256zM896 682.667v170.667C896 876.8 876.8 896 853.333 896s-42.667-19.2-42.667-42.666V682.667h-85.333v-256h256v256H896zM554.667 853.334C554.667 876.8 535.467 896 512 896s-42.667-19.2-42.667-42.666V682.667H384v-256h256v256h-85.333v170.667zM725.333 256c0-55.467 35.84-102.4 85.333-120.32V-42.667H896V135.68C945.49 153.173 981.33 200.107 981.33 256v85.333h-256V256z"/><glyph unicode="" d="M768 640v128c0 46.933-38.4 85.333-85.333 85.333H341.334C294.4 853.333 256 814.933 256 768V640h-42.666V384l128-256V0h341.333v128l128 256v256H768zM341.333 768h341.333V640h-85.333v85.333h-42.667V640h-85.333v85.333h-42.667V640h-85.333v128z"/><glyph unicode="" d="M341.333 448c0 35.413-28.587 64-64 64s-64-28.587-64-64 28.587-64 64-64 64 28.587 64 64zM640 661.334c0 35.413-28.587 64-64 64H448c-35.413 0-64-28.587-64-64s28.587-64 64-64h128c35.413 0 64 28.587 64 64zM362.667 298.667c-35.413 0-64-28.587-64-64s28.587-64 64-64 64 28.587 64 64-28.587 64-64 64zM512 896C253.013 896 42.667 685.653 42.667 426.667S253.014-42.666 512-42.666 981.333 167.68 981.333 426.667 770.986 896 512 896zm0-853.333c-211.627 0-384 172.373-384 384s172.373 384 384 384 384-172.373 384-384-172.373-384-384-384zM746.667 512c-35.413 0-64-28.587-64-64s28.587-64 64-64 64 28.587 64 64-28.587 64-64 64zm-85.334-213.333c-35.413 0-64-28.587-64-64s28.587-64 64-64 64 28.587 64 64-28.587 64-64 64z"/><glyph unicode="" d="M512.427 704l-85.76-106.667h170.667L512.427 704zM768 512V341.333l106.667 84.907L768 512zm-512 0l-106.667-85.76L256 341.333V512zm341.333-256H426.666l85.76-106.667L597.333 256zM896 810.667H128c-46.933 0-85.333-38.4-85.333-85.333V128c0-46.932 38.4-85.332 85.333-85.332h768c46.933 0 85.333 38.4 85.333 85.333v597.334c0 46.933-38.4 85.333-85.333 85.333zm0-683.093H128V725.76h768V127.575z"/><glyph unicode="" d="M554.667 554.667h-85.333v-85.333h85.333v85.333zm170.666 0H640v-85.333h85.333v85.333zm128-277.333c-53.333 0-104.533 8.533-152.32 24.32-14.933 4.693-31.573 1.28-43.52-10.24l-93.867-93.867c-120.747 61.44-219.733 160-281.173 280.747l93.867 94.293c11.947 11.52 15.36 28.16 10.667 43.093-15.787 47.787-24.32 98.987-24.32 152.32 0 23.467-19.2 42.667-42.667 42.667H170.667C147.2 810.667 128 791.467 128 768c0-400.64 324.693-725.333 725.333-725.333 23.467 0 42.667 19.2 42.667 42.667v149.333c0 23.467-19.2 42.667-42.667 42.667zm-42.666 277.333v-85.333H896v85.333h-85.333z"/><glyph unicode="" d="M298.667-85.333H384V0h-85.333v-85.333zm170.666 0h85.333V0h-85.333v-85.333zm85.334 938.667h-85.333V426.667h85.333v426.667zM706.56 749.227l-61.867-61.867C718.506 642.56 768 561.92 768 469.333c0-141.227-114.773-256-256-256s-256 114.773-256 256c0 92.587 49.493 173.227 122.88 218.453l-61.44 61.44c-88.747-61.44-146.773-163.84-146.773-279.893C170.667 280.746 323.414 128 512 128s341.333 152.747 341.333 341.333c0 116.053-58.027 218.453-146.773 279.893zM640-85.333h85.333V0H640v-85.333z"/><glyph unicode="" d="M640 554.667H384c-23.467 0-42.667-19.2-42.667-42.667V0c0-23.467 19.2-42.667 42.667-42.667h256c23.467 0 42.667 19.2 42.667 42.667v512c0 23.467-19.2 42.667-42.667 42.667zm-128-256c-46.933 0-85.333 38.4-85.333 85.333s38.4 85.333 85.333 85.333 85.333-38.4 85.333-85.333-38.4-85.333-85.333-85.333zM300.8 680.534l60.16-60.16c38.827 38.4 92.16 62.293 151.04 62.293s112.213-23.893 151.04-62.293l60.16 60.16C669.013 734.72 594.347 768 512 768s-157.013-33.28-211.2-87.466zM512 938.667c-129.707 0-247.04-52.48-331.947-137.387l60.16-60.16C309.76 810.24 405.76 853.333 512 853.333s202.24-43.093 271.36-112.64l60.16 60.16C759.04 886.186 641.707 938.666 512 938.666z"/><glyph unicode="" d="M298.667-85.333H384V0h-85.333v-85.333zM512 384c70.827 0 127.573 57.173 127.573 128L640 768c0 70.827-57.173 128-128 128s-128-57.173-128-128V512c0-70.827 57.173-128 128-128zM469.333-85.333h85.333V0h-85.333v-85.333zm170.667 0h85.333V0H640v-85.333zM810.667 512h-72.533c0-128-108.373-217.6-226.133-217.6S285.87 384 285.87 512h-72.533c0-145.493 116.053-265.813 256-286.72V85.333h85.333V225.28c139.947 20.907 256 141.227 256 286.72z"/><glyph unicode="" d="M829.013 384.854C830.72 398.507 832 412.16 832 426.667s-1.28 28.16-2.987 41.813l90.027 70.4c8.107 6.4 10.24 17.92 5.12 27.307l-85.333 147.627c-5.12 9.387-16.64 12.8-26.027 9.387l-106.24-42.666c-22.187 17.067-46.08 31.147-72.107 41.813L618.24 835.414c-1.28 10.24-10.24 17.92-20.907 17.92H426.666c-10.667 0-19.627-7.68-20.907-17.92l-16.214-113.067c-26.027-10.667-49.92-25.173-72.107-41.813L211.2 723.2c-9.814 3.84-20.908 0-26.028-9.386L99.84 566.187c-5.548-9.387-2.988-20.907 5.12-27.307l90.026-70.4C193.28 454.827 192 440.747 192 426.667s1.28-28.16 2.986-41.813l-90.027-70.4c-8.108-6.4-10.24-17.92-5.12-27.307L185.17 139.52c5.12-9.387 16.64-12.8 26.027-9.387L317.44 172.8c22.186-17.067 46.08-31.147 72.106-41.813L405.76 17.92C407.04 7.68 416 0 426.665 0h170.667C608 0 616.96 7.68 618.24 17.92l16.213 113.067c26.027 10.667 49.92 25.173 72.107 41.813l106.24-42.667c9.813-3.84 20.907 0 26.027 9.387l85.333 147.627c5.12 9.387 2.987 20.907-5.12 27.307l-90.027 70.4zM512 277.334c-82.347 0-149.333 66.987-149.333 149.333S429.654 576 512 576s149.333-66.987 149.333-149.333S594.346 277.334 512 277.334z"/><glyph unicode="" d="M128 554.667H42.667V85.334C42.667 37.974 80.64 0 128 0h597.333c47.36 0 85.333 37.974 85.333 85.334H128v469.333zm640 170.667v85.333c0 47.36-37.973 85.333-85.333 85.333H512c-47.36 0-85.333-37.973-85.333-85.333v-85.333H213.334V256c0-47.36 37.973-85.332 85.333-85.332H896c47.36 0 85.333 37.973 85.333 85.333v469.334H768zm-256 85.333h170.667v-85.333H512v85.333zm0-512v298.667l234.667-128L512 298.667z"/><glyph unicode="" d="M682.667 682.667V768c0 47.36-37.973 85.333-85.333 85.333H426.667c-47.36 0-85.333-37.973-85.333-85.333v-85.333h-256V128c0-47.36 37.973-85.333 85.333-85.333h682.667c47.36 0 85.333 37.973 85.333 85.333v554.667h-256zm-256 85.333h170.667v-85.333H426.667V768zM384 170.667v384L704 384 384 170.667z"/><glyph unicode="" d="M734.293 554.667L547.413 834.56c-8.107 11.947-21.76 17.92-35.413 17.92s-27.307-5.973-35.413-18.347l-186.88-279.467H85.334c-23.467 0-42.667-19.2-42.667-42.667 0-3.84.427-7.68 1.707-11.52l108.373-395.52c9.813-35.84 42.667-62.294 81.92-62.294h554.667c39.253 0 72.107 26.453 82.347 62.293l108.374 395.52 1.28 11.52c0 23.466-19.2 42.666-42.667 42.666H734.294zm-350.293 0L512 742.4l128-187.733H384zm128-341.333c-46.933 0-85.333 38.4-85.333 85.333S465.067 384 512 384s85.333-38.4 85.333-85.333-38.4-85.333-85.333-85.333z"/><glyph unicode="" d="M298.667 170.667c-46.933 0-84.907-38.4-84.907-85.333S251.733 0 298.667 0 384 38.4 384 85.335s-38.4 85.333-85.333 85.333zm-256 682.667V768H128l153.6-323.84L224 339.63c-6.827-11.947-10.667-26.027-10.667-40.96 0-46.933 38.4-85.333 85.333-85.333h512v85.333h-494.08c-5.973 0-10.667 4.693-10.667 10.667l1.28 5.12 38.4 69.547h317.866c32 0 60.16 17.493 74.667 43.947L890.88 704.855c3.413 5.973 5.12 13.227 5.12 20.48 0 23.467-19.2 42.667-42.667 42.667h-631.04l-40.107 85.333H42.666zm682.666-682.667c-46.933 0-84.907-38.4-84.907-85.333S678.4 0 725.333 0s85.333 38.4 85.333 85.334-38.4 85.333-85.333 85.333z"/><glyph unicode="" d="M853.333 853.334H170.666c-46.933 0-84.907-38.4-84.907-85.333L85.33 0 256 170.67H853.33c46.933 0 85.333 38.4 85.333 85.333v512c0 46.934-38.4 85.334-85.333 85.334zm-512-512H256v85.333h85.333v-85.333zm0 128H256v85.333h85.333v-85.333zm0 128H256v85.333h85.333v-85.333zm298.667-256H426.667v85.333H640v-85.333zm128 128H426.667v85.333H768v-85.333zm0 128H426.667v85.333H768v-85.333z"/><glyph unicode="" d="M531.2 256h89.173L402.346 810.667h-79.36L104.96 256h89.172l47.787 128h240.64l48.64-128zM274.347 469.334l88.32 235.52 88.32-235.52h-176.64zm646.826-25.174L576 98.987 419.413 256l-60.16-60.16L576.426-21.333 981.333 384l-60.16 60.16z"/><glyph unicode="" d="M512 328.534l158.293-115.2-60.587 186.027L768 512H573.865L512 704 450.13 512H256L414.29 399.36l-60.587-186.026z"/><glyph unicode="" d="M511.573 853.334c-235.52 0-426.24-191.147-426.24-426.667S276.053 0 511.573 0C747.52 0 938.666 191.147 938.666 426.667S747.52 853.334 511.573 853.334zM692.48 170.667L512 279.467l-180.48-108.8 47.787 205.227L220.16 513.707l209.92 17.92L512 725.334l81.92-193.28 209.92-17.92L644.693 376.32 692.48 170.67z"/><glyph unicode="" d="M853.333 768H170.666v-85.333h682.667V768zM896 341.334v85.333L853.333 640H170.666L128 426.667v-85.333h42.666v-256h426.667v256H768v-256h85.333v256H896zM512 170.667H256v170.667h256V170.667z"/><glyph unicode="" d="M597.333 213.334H170.666V128h426.667v85.334zm256 341.333H170.666v-85.333h682.667v85.333zm-682.666-256h682.667V384H170.667v-85.333zm0 426.667V640h682.667v85.334H170.667z"/><glyph unicode="" d="M704 426.667c58.88 0 106.24 47.787 106.24 106.667S762.88 640 704 640c-58.88 0-106.667-47.786-106.667-106.666S645.12 426.667 704 426.667zm-320 42.667c70.827 0 127.573 57.173 127.573 128s-56.747 128-127.573 128c-70.827 0-128-57.173-128-128s57.173-128 128-128zm320-128c-78.08 0-234.667-39.253-234.667-117.333v-96h469.333v96c0 78.08-156.587 117.334-234.667 117.334zM384 384c-99.413 0-298.667-49.92-298.667-149.333V128H384v96c0 36.267 14.08 99.84 101.12 148.053C448 379.733 412.16 384 384 384z"/><glyph unicode="" d="M298.24 469.334L128 298.667 298.24 128v128h299.093v85.333H298.24v128zM896 554.667L725.76 725.334v-128H426.667V512H725.76V384L896 554.67z"/><glyph unicode="" d="M512 853.334c-235.52 0-426.667-191.147-426.667-426.667S276.48 0 512 0s426.667 191.147 426.667 426.667S747.52 853.334 512 853.334zM277.333 554.667L426.666 704 576 554.667H469.33V384H384v170.667H277.33zm469.334-256L597.334 149.334 448 298.667H554.67v170.667H640V298.667H746.67z"/><glyph unicode="" d="M682.667 212.907V512h-85.333V212.907h-128L640 42.667l170.668 170.24h-128zM384 810.667l-170.667-170.24h128V341.334h85.333v299.093h128L384 810.667z"/><glyph unicode="" d="M512 234.667l170.667 170.667h-128v384h-85.333v-384h-128L512 234.667zm384 554.667H640v-84.907h256V105.814H128v598.613h256v84.907H128c-46.933 0-85.333-38.4-85.333-85.333V106.67c0-46.933 38.4-85.333 85.333-85.333h768c46.933 0 85.333 38.4 85.333 85.333V704c0 46.934-38.4 85.334-85.333 85.334z"/><glyph unicode="" d="M42.667 554.667H128V640H42.667v-85.333zm0-170.667H128v85.333H42.667V384zm0 341.334H128v85.333c-46.933 0-85.333-38.4-85.333-85.333zM384 42.667h85.333V128H384V42.667zM42.667 213.334H128v85.333H42.667v-85.333zM128 42.667V128H42.667c0-46.933 38.4-85.333 85.333-85.333zm768 768H554.667v-256h426.667v170.667c0 46.933-38.4 85.333-85.333 85.333zm0-597.333h85.333v85.333H896v-85.333zm-512 512h85.333v85.333H384v-85.333zM213.333 42.667h85.333V128h-85.333V42.667zm0 682.667h85.333v85.333h-85.333v-85.333zM896 42.667c46.933 0 85.333 38.4 85.333 85.333H896V42.667zM896 384h85.333v85.333H896V384zM554.667 42.667H640V128h-85.333V42.667zm170.666 0h85.333V128h-85.333V42.667z"/><glyph unicode="" d="M896 810.667H128c-46.933 0-85.333-38.4-85.333-85.333V128c0-46.932 38.4-85.332 85.333-85.332h768c46.933 0 85.333 38.4 85.333 85.333v597.334c0 46.933-38.4 85.333-85.333 85.333zM896 128H128v597.333h426.667V554.666H896V128z"/><glyph unicode="" d="M768 810.667v-85.333h-85.333v85.333H341.334v-85.333H256v85.333H170.67v-768H256V128h85.334V42.667h341.333V128H768V42.667h85.333v768H768zM341.333 213.334H256v85.333h85.333v-85.333zm0 170.666H256v85.333h85.333V384zm0 170.667H256V640h85.333v-85.333zM768 213.334h-85.333v85.333H768v-85.333zM768 384h-85.333v85.333H768V384zm0 170.667h-85.333V640H768v-85.333z"/><glyph unicode="" d="M640 810.667H256c-35.413 0-65.707-21.333-78.507-52.053L48.64 457.814c-3.84-9.813-5.973-20.053-5.973-31.147v-81.493l.427-.427-.427-3.413C42.667 294.4 81.067 256 128 256h269.227L356.694 61.015l-1.28-13.653c0-17.492 7.253-33.706 18.773-45.226l45.227-44.8 281.173 281.173c15.36 15.36 24.747 36.693 24.747 60.16v426.667c0 46.933-38.4 85.333-85.333 85.333zm170.667 0v-512h170.667v512H810.667z"/><glyph unicode="" d="M42.667 42.667h170.667v512H42.667v-512zM981.333 512c0 46.933-38.4 85.333-85.333 85.333H626.773l40.533 194.987 1.28 13.653c0 17.493-7.253 33.707-18.773 45.227L604.586 896 323.84 614.827c-15.788-15.36-25.174-36.693-25.174-60.16V128c0-46.933 38.4-85.333 85.333-85.333h384c35.412 0 65.706 21.333 78.506 52.053l128.853 300.8c3.84 9.813 5.972 20.053 5.972 31.147v81.493l-.427.427.427 3.413z"/><glyph unicode="" d="M512 682.667c0 23.467-19.2 42.667-42.667 42.667H248.32l28.16 135.68.853 9.813c0 13.227-5.547 25.173-14.08 34.133l-33.707 33.707L18.773 727.894C7.253 716.374 0 700.16 0 682.667V405.334c0-35.413 28.587-64 64-64h288c26.453 0 49.067 16.213 58.88 38.827l96.427 225.708c2.987 7.253 4.693 15.36 4.693 23.467v53.333zM960 512H672c-26.453 0-49.067-16.213-58.88-38.827l-96.427-225.707C513.706 240.213 512 232.106 512 224v-53.334C512 147.2 531.2 128 554.667 128H775.68L747.52-7.68l-.853-10.24c0-13.228 5.547-25.174 14.08-34.134l33.707-33.28 210.773 210.773c11.52 11.52 18.773 27.732 18.773 45.226V448c0 35.412-28.587 64-64 64z"/><glyph unicode="" d="M128 554.667h597.333V640H128v-85.333zM128 384h597.333v85.333H128V384zm0-170.666h597.333v85.333H128v-85.333zm682.667 0H896v85.333h-85.333v-85.333zm0 426.666v-85.333H896V640h-85.333zm0-256H896v85.333h-85.333V384z"/><glyph unicode="" d="M810.667 810.667H768V896h-85.333v-85.333H341.334V896H256v-85.333h-42.666c-47.36 0-84.907-38.4-84.907-85.333L128 128c0-46.932 37.973-85.332 85.333-85.332h597.333C857.6 42.668 896 81.068 896 128v597.334c0 46.933-38.4 85.333-85.334 85.333zm0-682.667H213.334v469.333h597.333V128zm-512 384H512V298.667H298.667z"/><glyph unicode="" d="M813.653 728.32l-60.16-60.16c61.44-61.867 99.84-147.2 99.84-241.493C853.333 238.08 700.586 85.334 512 85.334S170.667 238.08 170.667 426.667c0 174.08 130.133 317.44 298.667 338.347v-86.187C348.16 658.347 256 553.387 256 426.667c0-141.227 114.774-256 256-256s256 114.773 256 256c0 70.827-28.586 134.827-75.092 180.907l-60.16-60.16c30.72-31.147 49.92-73.813 49.92-120.747C682.668 332.374 606.295 256 512 256s-170.666 76.373-170.666 170.667c0 79.36 54.613 145.493 128 164.693v-91.307c-25.6-14.933-42.667-41.813-42.667-73.387 0-46.933 38.4-85.333 85.333-85.333s85.333 38.4 85.333 85.333c0 31.573-17.067 58.88-42.667 73.387v353.28H512c-235.52 0-426.668-191.147-426.668-426.667S276.48 0 512 0s426.666 191.146 426.666 426.666c0 117.76-47.787 224.427-125.013 301.653z"/><glyph unicode="" d="M549.12 295.68L440.747 402.773l1.28 1.28c74.24 82.773 127.147 177.92 158.293 278.613h125.013V768H426.666v85.332h-85.333V768H42.666V683.09h476.587C490.666 600.745 445.44 522.665 384 454.4c-39.68 43.946-72.533 92.16-98.56 142.932h-85.333c31.147-69.547 73.813-135.253 127.147-194.56L110.08 188.585l60.588-60.587L384 341.33 516.695 208.64l32.427 87.04zM789.333 512H704L512 0h85.333l47.787 128h202.667L896 0h85.333l-192 512zM677.547 213.334l69.12 184.747 69.12-184.746h-138.24z"/><glyph unicode="" d="M682.667 170.667l97.707 97.707L572.16 476.587 401.495 305.92 85.334 622.507l60.16 60.16 256-256L572.16 597.334l268.8-268.373 97.708 97.708v-256z"/><glyph unicode="" d="M938.667 426.667L768 597.334v-128H128V384h640V256z"/><glyph unicode="" d="M682.667 682.667l97.707-97.707L572.16 376.747 401.495 547.414 85.334 230.827l60.16-60.16 256 256L572.16 256l268.8 268.373 97.708-97.707v256z"/><glyph unicode="" d="M725.333 810.667H298.666c-46.933 0-84.907-38.4-84.907-85.333l-.428-682.667 298.667 128 298.666-128v682.667c0 46.933-38.4 85.333-85.333 85.333zm0-640L512 263.68l-213.333-93.013v554.667h426.667V170.667z"/><glyph unicode="" d="M725.333 810.667H298.666c-46.933 0-84.907-38.4-84.907-85.333l-.428-682.667 298.667 128 298.666-128v682.667c0 46.933-38.4 85.333-85.333 85.333z"/><glyph unicode="" d="M512 896L128 725.333v-256c0-236.8 163.84-458.24 384-512 220.16 53.76 384 275.2 384 512v256L512 896zm-85.333-682.666L256 384l60.16 60.16 110.507-110.08L707.84 615.255 768 554.667 426.667 213.334z"/><glyph unicode="" d="M853.333 384H128c-23.467 0-42.667-19.2-42.667-42.667v-256c0-23.467 19.2-42.667 42.667-42.667h725.333c23.467 0 42.667 19.2 42.667 42.667v256C896 364.8 876.8 384 853.333 384zm0 426.667H128c-23.467 0-42.667-19.2-42.667-42.667V512c0-23.467 19.2-42.667 42.667-42.667h725.333C876.8 469.333 896 488.533 896 512v256c0 23.467-19.2 42.667-42.667 42.667z"/><glyph unicode="" d="M170.667 170.667h128v554.667h-128V170.667zM768 725.334V170.667h128v554.667H768zM341.333 170.667h384v554.667h-384V170.667z"/><glyph unicode="" d="M298.667 128h426.667v640H298.667V128zM85.333 213.334H256v469.333H85.333V213.334zM768 682.667V213.334h170.667v469.333H768z"/><glyph unicode="" d="M426.667 170.667H640v554.667H426.667V170.667zm-256 0H384v554.667H170.667V170.667zm512 554.667V170.667H896v554.667H682.667z"/><glyph unicode="" d="M85.333 42.667H896v128H85.333v-128zm768 554.667H128c-23.467 0-42.667-19.2-42.667-42.667v-256C85.333 275.2 104.533 256 128 256h725.333C876.8 256 896 275.2 896 298.667v256c0 23.467-19.2 42.667-42.667 42.667zm-768 213.333v-128H896v128H85.333z"/><glyph unicode="" d="M170.667 298.667H896V384H170.667v-85.333zm0-170.667H896v85.333H170.667V128zm0 341.334H896v85.333H170.667v-85.333zm0 256V640H896v85.334H170.667z"/><glyph unicode="" d="M170.667 341.334h170.667V512H170.667V341.335zm0-213.334h170.667v170.667H170.667V128zm0 426.667h170.667v170.667H170.667V554.667zM384 341.334h512V512H384V341.335zM384 128h512v170.667H384V128zm0 597.334V554.667h512v170.667H384z"/><glyph unicode="" d="M170.667 469.334H384v256H170.667v-256zm0-298.667H384v256H170.667v-256zm256 0H640v256H426.667v-256zm256 0H896v256H682.667v-256zm-256 298.667H640v256H426.667v-256zm256 256v-256H896v256H682.667z"/><glyph unicode="" d="M426.667 170.667H640v256H426.667v-256zm-256 0H384v554.667H170.667V170.667zm512 0H896v256H682.667v-256zm-256 554.667v-256H896v256H426.667z"/><glyph unicode="" d="M170.667 170.667H896v256H170.667v-256zm0 554.667v-256H896v256H170.667z"/><glyph unicode="" d="M256 725.334H128c-23.467 0-42.667-19.2-42.667-42.667v-512C85.333 147.2 104.533 128 128 128h128c23.467 0 42.667 19.2 42.667 42.667v512c0 23.467-19.2 42.667-42.667 42.667zm597.333 0h-128c-23.467 0-42.667-19.2-42.667-42.667v-512c0-23.467 19.2-42.667 42.667-42.667h128C876.8 128 896 147.2 896 170.667v512c0 23.467-19.2 42.667-42.667 42.667zm-298.666 0h-128c-23.467 0-42.667-19.2-42.667-42.667v-512C384 147.2 403.2 128 426.667 128h128c23.467 0 42.667 19.2 42.667 42.667v512c0 23.467-19.2 42.667-42.667 42.667z"/><glyph unicode="" d="M512 640c117.76 0 213.333-95.573 213.333-213.333 0-27.733-5.547-53.76-15.36-78.08L834.56 224c64.427 53.76 115.2 123.307 146.347 202.667-73.813 187.307-256 320-469.333 320-59.733 0-116.907-10.667-169.813-29.867l92.16-92.16C458.24 634.453 484.27 640 512 640zM85.333 756.48L202.24 639.573c-70.827-55.04-126.293-128.427-159.573-212.907 73.813-187.307 256-320 469.333-320 66.133 0 129.28 12.8 186.88 35.84l17.92-17.92L841.813 0 896 54.185l-756.48 756.48-54.187-54.187zM321.28 520.534l66.133-66.133C385.28 445.44 384 436.055 384 426.67c0-70.827 57.173-128 128-128 9.387 0 18.773 1.28 27.733 3.413l66.133-66.132c-28.587-14.08-60.16-22.613-93.867-22.613-117.76 0-213.334 95.573-213.334 213.333 0 33.707 8.533 65.28 22.613 93.867zm183.893 33.28l134.4-134.4.853 6.827c0 70.828-57.173 128-128 128l-7.253-.426z"/><glyph unicode="" d="M512 746.667c-213.333 0-395.52-132.693-469.333-320 73.813-187.307 256-320 469.333-320s395.52 132.693 469.333 320c-73.813 187.307-256 320-469.333 320zm0-533.333c-117.76 0-213.333 95.573-213.333 213.333S394.24 640 512 640s213.333-95.573 213.333-213.333S629.76 213.334 512 213.334zm0 341.333c-70.827 0-128-57.173-128-128s57.173-128 128-128 128 57.173 128 128-57.173 128-128 128z"/><glyph unicode="" d="M853.333 682.667H760.32c4.693 13.227 7.68 27.733 7.68 42.667 0 70.827-57.173 128-128 128-44.8 0-83.627-23.04-106.667-57.6L512 767.147l-21.333 29.013C467.627 830.293 428.8 853.333 384 853.333c-70.827 0-128-57.173-128-128 0-14.933 2.987-29.44 7.68-42.667h-93.013c-47.36 0-84.907-37.973-84.907-85.333L85.333 128c0-47.36 37.973-85.333 85.333-85.333h682.667c47.36 0 85.333 37.973 85.333 85.333v469.333c0 47.36-37.973 85.333-85.333 85.333zM640 768c23.467 0 42.667-19.2 42.667-42.667s-19.2-42.667-42.667-42.667-42.667 19.2-42.667 42.667S616.533 768 640 768zm-256 0c23.467 0 42.667-19.2 42.667-42.667s-19.2-42.667-42.667-42.667-42.667 19.2-42.667 42.667S360.533 768 384 768zm469.333-640H170.666v85.333h682.667V128zm0 213.334H170.666v256h216.747l-88.747-120.747 69.12-49.92L512 622.934 656.21 426.667l69.12 49.92-88.747 120.747h216.747v-256z"/><glyph unicode="" d="M853.333 853.334H170.666c-47.36 0-85.333-37.973-85.333-85.333V298.67c0-47.36 37.973-85.333 85.333-85.333h170.667V.002L512 85.335 682.667.002v213.333h170.667c47.36 0 85.333 37.973 85.333 85.333V768c0 47.36-37.973 85.334-85.333 85.334zm0-554.667H170.666V384h682.667v-85.333zm0 213.333H170.666v256h682.667V512z"/><glyph unicode="" d="M853.333 682.667h-128V768c0 47.36-37.973 85.333-85.333 85.333H384c-47.36 0-85.333-37.973-85.333-85.333v-85.333h-128c-47.36 0-85.333-37.973-85.333-85.333V128c0-47.36 37.973-85.332 85.333-85.332h682.667c47.36 0 85.333 37.973 85.333 85.333v469.334c0 47.36-37.973 85.333-85.333 85.333zM384 768h256v-85.333H384V768zm469.333-640H170.666v85.333h682.667V128zm0 213.334H170.666v256h128V512H384v85.334h256V512h85.332v85.334h128v-256z"/><glyph unicode="" d="M853.333 682.667H682.666V768c0 47.36-37.973 85.333-85.333 85.333H426.666c-47.36 0-85.333-37.973-85.333-85.333v-85.333H170.666c-47.36 0-84.907-37.973-84.907-85.333L85.33 128c0-47.36 37.973-85.332 85.333-85.332h682.667c47.36 0 85.333 37.973 85.333 85.333v469.334c0 47.36-37.973 85.333-85.333 85.333zm-256 0H426.666V768h170.667v-85.333z"/><glyph unicode="" d="M512 853.334c-235.52 0-426.667-191.147-426.667-426.667S276.48 0 512 0s426.667 191.147 426.667 426.667S747.52 853.334 512 853.334zm42.667-640h-85.333v85.333h85.333v-85.333zm0 170.666h-85.333v256h85.333V384z"/><glyph unicode="" d="M42.667 42.667h938.667L512 853.334 42.67 42.667zm512 128h-85.333V256h85.333v-85.333zm0 170.667h-85.333V512h85.333V341.335z"/><glyph unicode="" d="M512 853.334c-235.52 0-426.667-191.147-426.667-426.667S276.48 0 512 0s426.667 191.147 426.667 426.667S747.52 853.334 512 853.334zm0-618.667c-106.24 0-192 85.76-192 192s85.76 192 192 192 192-85.76 192-192-85.76-192-192-192zm0 234.667c-23.467 0-42.667-19.2-42.667-42.667S488.533 384 512 384s42.667 19.2 42.667 42.667-19.2 42.667-42.667 42.667z"/><glyph unicode="" d="M810.667 768H213.334C165.974 768 128 729.6 128 682.667v-512c0-46.933 37.974-85.333 85.334-85.333h597.333c46.933 0 85.333 38.4 85.333 85.333v512C896 729.6 857.6 768 810.667 768zM469.333 469.334h-64v21.333H320v-128h85.333V384h64v-42.667c0-23.467-19.2-42.667-42.667-42.667h-128c-23.467 0-42.667 19.2-42.667 42.667V512c0 23.467 19.2 42.667 42.666 42.667h128c23.467 0 42.667-19.2 42.667-42.667v-42.667zm298.667 0h-64v21.333h-85.333v-128H704V384h64v-42.667c0-23.467-19.2-42.667-42.667-42.667h-128c-23.467 0-42.667 19.2-42.667 42.667V512c0 23.467 19.2 42.667 42.667 42.667h128C748.8 554.667 768 535.467 768 512v-42.667z"/><glyph unicode="" d="M426.667 85.334h170.667V768H426.667V85.335zm-256 0h170.667v341.333H170.667V85.334zm512 469.333V85.334h170.667v469.333H682.667z"/><glyph unicode="" d="M810.667 810.667H213.334c-46.933 0-85.333-38.4-85.333-85.333V128c0-46.932 38.4-85.332 85.334-85.332h597.333C857.6 42.668 896 81.068 896 128v597.334c0 46.933-38.4 85.333-85.333 85.333zM640 554.667H469.333v-85.333H640V384H469.333V298.67H640v-85.333H384v426.667h256V554.67z"/><glyph unicode="" d="M170.667 170.667l362.667 256-362.667 256v-512zm384 512v-512l362.667 256-362.667 256z"/><glyph unicode="" d="M469.333 170.667v512l-362.667-256 362.667-256zm21.334 256l362.667-256v512l-362.667-256z"/><glyph unicode="" d="M640 618.667v234.667H384V618.667l128-128 128 128zm-320-64H85.333v-256H320l128 128-128 128zm64-320V0h256v234.667l-128 128-128-128zm320 320l-128-128 128-128h234.667v256H704z"/><glyph unicode="" d="M725.333 85.334c-12.373 0-23.893 2.56-32.427 6.4-30.293 15.787-51.627 37.547-72.96 101.547-21.76 66.56-62.72 97.708-101.973 128-33.707 26.028-68.693 52.908-98.987 107.948-22.613 40.96-34.987 85.76-34.987 125.44C384 674.135 477.865 768 597.33 768s213.333-93.866 213.333-213.332h85.333c0 167.68-130.987 298.667-298.667 298.667S298.665 722.348 298.665 554.668c0-53.76 16.213-113.067 45.653-166.4 38.827-70.4 84.48-105.813 121.6-134.4 34.56-26.453 59.307-45.653 72.96-87.467 25.6-77.652 58.453-121.172 116.48-151.466C677.117 5.12 701.01 0 725.33 0c94.293 0 170.667 76.374 170.667 170.668h-85.333c0-46.933-38.4-85.333-85.333-85.333zm-399.36 740.693l-60.587 60.587C180.48 801.707 128 684.374 128 554.667s52.48-247.04 137.386-331.947l60.16 60.16c-69.12 69.547-112.213 165.547-112.213 271.787s43.093 202.24 112.64 271.36zm164.694-271.36c0-58.88 47.787-106.667 106.667-106.667S704 495.787 704 554.667s-47.786 106.667-106.666 106.667-106.667-47.787-106.667-106.667z"/><glyph unicode="" d="M810.667 768H213.334C165.974 768 128 729.6 128 682.667v-512c0-46.933 37.974-85.333 85.334-85.333h597.333c46.933 0 85.333 38.4 85.333 85.333v512C896 729.6 857.6 768 810.667 768zM469.333 298.667h-64V384H320v-85.333h-64v256h64V448h85.333v106.667h64v-256zM768 341.334c0-23.467-19.2-42.667-42.667-42.667h-32v-64h-64v64h-32c-23.467 0-42.667 19.2-42.667 42.667V512c0 23.468 19.2 42.668 42.667 42.668h128C748.8 554.668 768 535.468 768 512V341.335zm-149.333 21.333H704v128h-85.333v-128z"/><glyph unicode="" d="M512 768v128L341.333 725.333 512 554.666v128c141.227 0 256-114.773 256-256 0-43.093-10.667-84.053-29.867-119.467l62.293-62.294c33.28 52.48 52.907 114.773 52.907 181.76C853.333 615.253 700.586 768 512 768zm0-597.333c-141.227 0-256 114.773-256 256 0 43.093 10.667 84.053 29.867 119.467l-62.293 62.293c-33.28-52.48-52.907-114.773-52.907-181.76C170.667 238.08 323.414 85.334 512 85.334v-128L682.667 128 512 298.67v-128z"/><glyph unicode="" d="M512 341.334c70.827 0 127.573 57.173 127.573 128l.427 256c0 70.827-57.173 128-128 128s-128-57.173-128-128v-256c0-70.827 57.173-128 128-128zM460.8 729.6c0 28.16 23.04 51.2 51.2 51.2s51.2-23.04 51.2-51.2l-.427-264.533c0-28.16-22.613-51.2-50.773-51.2s-51.2 23.04-51.2 51.2V729.6zm277.333-260.266c0-128-108.373-217.6-226.133-217.6s-226.133 89.6-226.133 217.6h-72.533c0-145.493 116.053-265.813 256-286.72V42.667h85.333v139.947c139.947 20.48 256 140.8 256 286.72h-72.533z"/><glyph unicode="" d="M810.667 469.334h-72.533c0-31.573-6.827-61.013-18.347-87.467l52.48-52.48c23.893 41.813 38.4 89.173 38.4 139.947zm-171.52-7.254c0 2.56.853 4.693.853 7.253v256c0 70.827-57.173 128-128 128s-128-57.173-128-128v-7.68L639.147 462.08zm-456.96 348.587L128 756.48l256.427-256.427v-30.72c0-70.827 56.747-128 127.573-128 9.387 0 18.773 1.28 27.733 3.413l70.827-70.827c-30.293-14.08-64-22.188-98.56-22.188-117.76 0-226.133 89.6-226.133 217.6h-72.533c0-145.493 116.053-265.813 256-286.72V42.665h85.333v139.947c38.827 5.547 75.52 19.2 108.373 38.4L841.813 42.665 896 96.852 182.187 810.665z"/><glyph unicode="" d="M512 341.334c70.827 0 127.573 57.173 127.573 128l.427 256c0 70.827-57.173 128-128 128s-128-57.173-128-128v-256c0-70.827 57.173-128 128-128zm226.133 128c0-128-108.373-217.6-226.133-217.6s-226.133 89.6-226.133 217.6h-72.533c0-145.493 116.053-265.813 256-286.72V42.667h85.333v139.947c139.947 20.48 256 140.8 256 286.72h-72.533z"/><glyph unicode="" d="M768 768l85.333-170.667h-128L640 768h-85.333L640 597.333H512L426.667 768h-85.333l85.333-170.667h-128L213.334 768h-42.667c-46.933 0-84.907-38.4-84.907-85.333l-.427-512c0-46.933 38.4-85.333 85.333-85.333h682.667c46.933 0 85.333 38.4 85.333 85.333V768H768z"/><glyph unicode="" d="M170.667 682.667H85.334V85.334C85.334 38.4 123.734 0 170.667 0H768v85.334H170.667v597.333zm682.666 170.667h-512C294.4 853.334 256 814.934 256 768V256c0-46.932 38.4-85.332 85.333-85.332h512c46.933 0 85.333 38.4 85.333 85.333v512c0 46.934-38.4 85.334-85.333 85.334zm-42.666-384H640V298.667h-85.333v170.667H384v85.333h170.667v170.667H640V554.667h170.667v-85.333z"/><glyph unicode="" d="M170.667 682.667H85.334V85.334C85.334 38.4 123.734 0 170.667 0H768v85.334H170.667v597.333zm682.666 170.667h-512C294.4 853.334 256 814.934 256 768V256c0-46.932 38.4-85.332 85.333-85.332h512c46.933 0 85.333 38.4 85.333 85.333v512c0 46.934-38.4 85.334-85.333 85.334zm-42.666-384H384v85.333h426.667v-85.333zM640 298.667H384V384h256v-85.333zM810.667 640H384v85.333h426.667V640z"/><glyph unicode="" d="M853.333 853.334h-512C294.4 853.334 256 814.934 256 768V256c0-46.932 38.4-85.332 85.333-85.332h512c46.933 0 85.333 38.4 85.333 85.333v512c0 46.934-38.4 85.334-85.333 85.334zM768 640H640V405.333c0-58.88-47.787-106.667-106.667-106.667s-106.667 47.787-106.667 106.667S474.453 512 533.333 512c24.32 0 46.08-8.107 64-21.76v235.093H768V640zm-597.333 42.667H85.334V85.334C85.334 38.4 123.734 0 170.667 0H768v85.334H170.667v597.333z"/><glyph unicode="" d="M981.333 426.667L877.226 545.28l14.507 157.013-154.027 34.987-80.64 135.68L512 810.667 366.93 872.96l-80.64-135.68-154.027-34.56 14.507-157.013-104.107-119.04 104.107-118.613-14.507-157.44 154.027-34.987 80.64-135.68L512 42.667l145.066-62.293 80.64 135.68 154.027 34.987-14.507 157.014 104.107 118.613zM554.667 213.334h-85.333v85.333h85.333v-85.333zm0 170.666h-85.333v256h85.333V384z"/><glyph unicode="" d="M512 853.334c-235.52 0-426.667-191.147-426.667-426.667S276.48 0 512 0s426.667 191.147 426.667 426.667S747.52 853.334 512 853.334zm0-768c-188.587 0-341.333 152.747-341.333 341.333 0 78.933 26.88 151.467 72.107 209.067L721.067 157.44C663.467 112.215 590.934 85.335 512 85.335zM781.227 217.6L302.934 695.893C360.534 741.12 433.067 768 512 768c188.588 0 341.334-152.747 341.334-341.333 0-78.933-26.88-151.467-72.107-209.067z"/><glyph unicode="" d="M512 853.334c-235.52 0-426.667-191.147-426.667-426.667S276.48 0 512 0s426.667 191.147 426.667 426.667S747.52 853.334 512 853.334zM469.333 256H384v341.333h85.333V256zM640 256h-85.333v341.333H640V256z"/><glyph unicode="" d="M384 256h85.333v341.333H384V256zm128 597.334c-235.52 0-426.667-191.147-426.667-426.667S276.48 0 512 0s426.667 191.147 426.667 426.667S747.52 853.334 512 853.334zm0-768c-188.16 0-341.333 153.173-341.333 341.333S323.84 768 512 768s341.333-153.173 341.333-341.333S700.16 85.334 512 85.334zM554.667 256H640v341.333h-85.333V256z"/><glyph unicode="" d="M256 128h170.667v597.333H256V128zm341.333 597.334V128H768v597.334H597.333z"/><glyph unicode="" d="M341.333 725.334V128L810.666 426.67z"/><glyph unicode="" d="M512 853.334c-235.52 0-426.667-191.147-426.667-426.667S276.48 0 512 0s426.667 191.147 426.667 426.667S747.52 853.334 512 853.334zm-85.333-618.667v384l256-192-256-192z"/><glyph unicode="" d="M426.667 234.667l256 192-256 192v-384zM512 853.334c-235.52 0-426.667-191.147-426.667-426.667S276.48 0 512 0s426.667 191.147 426.667 426.667S747.52 853.334 512 853.334zm0-768c-188.16 0-341.333 153.173-341.333 341.333S323.84 768 512 768s341.333-153.173 341.333-341.333S700.16 85.334 512 85.334z"/><glyph unicode="" d="M682.667 682.667V768c0 47.36-37.973 85.333-85.333 85.333H426.667c-47.36 0-85.333-37.973-85.333-85.333v-85.333h-256V128c0-47.36 37.973-85.333 85.333-85.333h682.667c47.36 0 85.333 37.973 85.333 85.333v554.667h-256zm-256 85.333h170.667v-85.333H426.667V768zM384 170.667v384L704 384 384 170.667z"/><glyph unicode="" d="M597.333 512h-512v-85.333h512V512zm0 170.667h-512v-85.333h512v85.333zM768 341.334V512h-85.333V341.335H512V256h170.667V85.335H768V256h170.667v85.334H768zM85.333 256h341.333v85.333H85.333V256z"/><glyph unicode="" d="M640 682.667H128v-85.333h512v85.333zM640 512H128v-85.333h512V512zM128 256h341.333v85.333H128V256zm597.333 426.667V333.654c-13.227 4.693-27.733 7.68-42.667 7.68-70.827 0-128-57.173-128-128s57.173-128 128-128 128 57.173 128 128v384h128v85.333H725.333z"/><glyph unicode="" d="M170.667 682.667H85.334V85.334C85.334 38.4 123.734 0 170.667 0H768v85.334H170.667v597.333zm682.666 170.667h-512C294.4 853.334 256 814.934 256 768V256c0-46.932 38.4-85.332 85.333-85.332h512c46.933 0 85.333 38.4 85.333 85.333v512c0 46.934-38.4 85.334-85.333 85.334zm-42.666-384H640V298.667h-85.333v170.667H384v85.333h170.667v170.667H640V554.667h170.667v-85.333z"/><glyph unicode="" d="M138.24 676.267c-31.147-11.947-52.907-43.52-52.907-78.933v-512C85.333 38.4 123.306 0 170.666 0h682.667c47.36 0 85.333 38.4 85.333 85.334v512c0 47.36-37.973 85.333-85.333 85.333h-499.2L706.56 825.174 677.547 896 138.24 676.27zM298.667 85.334c-70.827 0-128 57.173-128 128s57.173 128 128 128 128-57.173 128-128-57.173-128-128-128zm554.666 341.333H768V512h-85.333v-85.333h-512v170.667h682.667V426.667z"/><glyph unicode="" d="M896 725.334V128h85.333v597.334H896zM725.333 128h85.333v597.333h-85.333V128zm-128 597.334h-512c-23.467 0-42.667-19.2-42.667-42.667v-512c0-23.467 19.2-42.667 42.667-42.667h512C620.8 128 640 147.2 640 170.667v512c0 23.467-19.2 42.667-42.667 42.667zM341.333 608c52.907 0 96-43.093 96-96s-43.093-96-96-96-96 43.093-96 96 43.093 96 96 96zm192-394.666h-384v32c0 64 128 96 192 96s192-32 192-96v-32z"/><glyph unicode="" d="M298.667 640h426.667V512L896 682.667 725.335 853.334v-128h-512v-256h85.333V640zm426.666-426.666H298.666v128L128 170.667 298.665 0v128h512v256h-85.333V213.333zm-170.666 85.333v256H512L426.667 512v-42.667h64V298.666h64z"/><glyph unicode="" d="M298.667 640h426.667V512L896 682.667 725.335 853.334v-128h-512v-256h85.333V640zm426.666-426.666H298.666v128L128 170.667 298.665 0v128h512v256h-85.333V213.333z"/><glyph unicode="" d="M512 725.334V896L298.667 682.67 512 469.335v170.667c141.227 0 256-114.773 256-256s-114.773-256-256-256-256 114.773-256 256h-85.333C170.667 195.415 323.414 42.67 512 42.67S853.333 195.415 853.333 384 700.586 725.335 512 725.335z"/><glyph unicode="" d="M451.84 547.414L230.827 768l-60.16-60.16 220.587-220.586 60.587 60.16zM618.667 768l87.04-87.04-535.04-535.467 60.16-60.16 535.467 535.04 87.04-87.04V768H618.667zm14.08-401.493l-60.16-60.16L706.134 172.8l-87.467-87.467h234.667V320l-87.04-87.04-133.547 133.547z"/><glyph unicode="" d="M256 170.667l362.667 256-362.667 256v-512zm426.667 512v-512H768v512h-85.333z"/><glyph unicode="" d="M256 682.667h85.333v-512H256zm149.333-256l362.667-256v512z"/><glyph unicode="" d="M336.213 794.027l-54.613 65.28L85.333 695.04l55.04-65.28 195.84 164.267zm602.454-99.413L742.4 859.307l-55.04-65.28 196.267-164.693 55.04 65.28zM512 768c-212.053 0-384-171.947-384-384S299.52 0 512 0c212.053 0 384 171.947 384 384S724.053 768 512 768zm0-682.666C346.88 85.334 213.333 218.88 213.333 384S346.88 682.67 512 682.67 810.667 549.12 810.667 384 677.12 85.335 512 85.335zm-128 384h154.88L384 290.134v-76.8h256v85.333H485.12L640 477.867v76.8H384v-85.333z"/><glyph unicode="" d="M256 682.667h512v-512H256z"/><glyph unicode="" d="M853.333 768H170.666c-46.933 0-85.333-38.4-85.333-85.333v-512c0-46.933 38.4-85.333 85.333-85.333h682.667c46.933 0 85.333 38.4 85.333 85.333v512c0 46.933-38.4 85.333-85.333 85.333zM170.667 426.667h170.667v-85.333H170.667v85.333zm426.666-256H170.666V256h426.667v-85.333zm256 0H682.666V256h170.667v-85.333zm0 170.667H426.666v85.333h426.667v-85.333z"/><glyph unicode="" d="M853.333 768H170.666c-46.933 0-85.333-38.4-85.333-85.333v-512c0-46.933 38.4-85.333 85.333-85.333h682.667c46.933 0 85.333 38.4 85.333 85.333v512c0 46.933-38.4 85.333-85.333 85.333zm-522.24-522.24l-60.16-60.16c-66.987 66.133-100.267 153.6-100.267 241.067s33.28 174.933 99.84 241.493l60.16-60.16C281.173 557.653 256 492.373 256 426.667S281.17 295.68 331.09 245.76zM512 256c-94.293 0-170.667 76.373-170.667 170.667S417.706 597.334 512 597.334s170.667-76.373 170.667-170.667S606.294 256 512 256zm241.493-70.826l-60.16 60.16C742.826 295.68 768 360.96 768 426.667s-25.173 130.987-75.093 180.907l60.16 60.16c66.987-66.133 100.267-153.6 100.267-241.067s-33.28-174.933-99.84-241.493zM512 512c-46.933 0-85.333-38.4-85.333-85.333s38.4-85.333 85.333-85.333 85.333 38.4 85.333 85.333S558.933 512 512 512z"/><glyph unicode="" d="M469.333 213.334c0-23.467 19.2-42.667 42.667-42.667s42.667 19.2 42.667 42.667S535.467 256 512 256s-42.667-19.2-42.667-42.666zm0 597.333V640h85.333v81.92c144.64-20.907 256-144.64 256-295.253C810.666 261.547 677.12 128 512 128S213.33 261.547 213.33 426.667c0 71.68 25.173 137.387 67.413 188.587L511.998 384l60.16 60.16-290.133 290.134v-.853c-93.44-69.972-154.027-180.906-154.027-306.772 0-212.053 171.52-384 384-384 212.053 0 384 171.947 384 384s-171.947 384-384 384H469.33zm298.667-384c0 23.467-19.2 42.667-42.667 42.667s-42.667-19.2-42.667-42.667S701.866 384 725.333 384 768 403.2 768 426.667zm-512 0C256 403.2 275.2 384 298.667 384s42.667 19.2 42.667 42.667-19.2 42.667-42.667 42.667S256 450.134 256 426.667z"/><glyph unicode="" d="M170.667 682.667H85.334V85.334C85.334 38.4 123.734 0 170.667 0H768v85.334H170.667v597.333zm682.666 170.667h-512C294.4 853.334 256 814.934 256 768V256c0-46.932 38.4-85.332 85.333-85.332h512c46.933 0 85.333 38.4 85.333 85.333v512c0 46.934-38.4 85.334-85.333 85.334zM512 320v384l256-192-256-192z"/><glyph unicode="" d="M896 661.334L725.333 490.667V640c0 23.467-19.2 42.667-42.667 42.667h-263.68L896 205.654v455.68zm-756.48 192l-54.187-54.187 116.48-116.48h-31.147C147.2 682.667 128 663.467 128 640V213.333c0-23.467 19.2-42.667 42.666-42.667h512c8.96 0 16.64 3.413 23.04 7.68l136.107-135.68L896 96.853l-756.48 756.48z"/><glyph unicode="" d="M725.333 490.667V640c0 23.467-19.2 42.667-42.667 42.667h-512C147.2 682.667 128 663.467 128 640V213.333c0-23.467 19.2-42.667 42.666-42.667h512c23.467 0 42.667 19.2 42.667 42.667v149.333L896 192V661.33L725.333 490.665z"/><glyph unicode="" d="M789.333 426.667c0 75.52-43.52 140.373-106.667 171.947V255.147c63.147 31.147 106.667 96 106.667 171.52zm-576 128v-256H384L597.333 85.334V768L384 554.67H213.333z"/><glyph unicode="" d="M298.667 554.667v-256h170.667L682.667 85.334V768L469.334 554.67H298.667z"/><glyph unicode="" d="M704 426.667c0 75.52-43.52 140.373-106.667 171.947V504.32L701.866 399.79c1.28 8.533 2.133 17.493 2.133 26.88zm106.667 0c0-40.107-8.533-77.653-23.04-112.64l64.427-64.427C880.214 302.507 896 362.667 896 426.667c0 182.613-127.572 335.36-298.666 374.187V712.96C720.64 676.27 810.667 561.92 810.667 426.67zm-628.48 384L128 756.48l201.813-201.813H128v-256h170.667L512 85.334V372.48L693.333 191.15c-28.587-22.187-60.587-39.68-96-50.347V52.91c58.88 13.227 112.213 40.533 157.44 77.227l87.04-87.467L896 96.855 182.187 810.668zM512 768l-89.173-89.173L512 589.654V768z"/><glyph unicode="" d="M128 554.667v-256h170.667L512 85.334V768L298.667 554.67H128zm576-128c0 75.52-43.52 140.373-106.667 171.947V255.147C660.48 286.294 704 351.147 704 426.667zM597.333 800.854V712.96C720.64 676.27 810.666 561.92 810.666 426.67s-90.027-249.6-213.333-286.293V52.482C768.426 91.31 896 244.055 896 426.67S768.427 762.03 597.333 800.855z"/><glyph unicode="" d="M853.333 768H170.666c-46.933 0-84.907-38.4-84.907-85.333l-.428-512c0-46.933 38.4-85.333 85.333-85.333h682.667c46.933 0 85.333 38.4 85.333 85.333v512c0 46.933-38.4 85.333-85.333 85.333zM640 170.667H170.667v170.667H640V170.667zM640 384H170.667v170.667H640V384zm213.333-213.333H682.666v384h170.667v-384z"/><glyph unicode="" d="M512 640v170.667H85.333v-768h853.333V640H512zM256 128h-85.333v85.333H256V128zm0 170.667h-85.333V384H256v-85.333zm0 170.667h-85.333v85.333H256v-85.333zM256 640h-85.333v85.333H256V640zm170.667-512h-85.333v85.333h85.333V128zm0 170.667h-85.333V384h85.333v-85.333zm0 170.667h-85.333v85.333h85.333v-85.333zm0 170.666h-85.333v85.333h85.333V640zm426.666-512H512v85.333h85.333v85.333H512V384h85.333v85.332H512v85.333h341.333V127.998zM768 469.334h-85.333V384H768v85.334zm0-170.667h-85.333v-85.333H768v85.333z"/><glyph unicode="" d="M512 554.667c-68.267 0-134.4-10.667-196.267-30.72V391.68c0-16.64-9.813-31.573-23.893-38.4-41.813-20.907-79.787-47.787-113.493-78.933-7.68-7.68-18.347-11.947-29.867-11.947-11.947 0-22.613 4.693-30.293 12.373L12.374 380.586C4.694 387.84 0 398.506 0 410.453s4.694 22.613 12.374 30.293C142.507 564.053 318.294 640 512 640s369.494-75.948 499.628-199.254c7.68-7.68 12.373-18.347 12.373-30.293s-4.692-22.613-12.372-30.293L905.815 274.347c-7.68-7.68-18.347-12.373-30.293-12.373-11.52 0-22.187 4.693-29.867 11.947-33.707 31.574-72.107 58.028-113.92 78.934-14.08 6.827-23.893 21.333-23.893 38.4V523.52C646.402 544 580.27 554.67 512.002 554.67z"/><glyph unicode="" d="M384 725.334V640h281.173L170.666 145.495l60.16-60.16L725.333 579.84V298.67h85.333v426.667z"/><glyph unicode="" d="M725.333 67.84l60.16 60.16L640 273.493l-60.16-60.16L725.333 67.84zM320 597.334h149.333V358.827L238.506 128l60.16-60.16 256 256v273.493H704l-192 192-192-192z"/><glyph unicode="" d="M835.84 640L512 316.16 273.493 554.667h195.84V640H128V298.667h85.333v195.84L512 195.84l384 384z"/><glyph unicode="" d="M853.333 707.84L793.173 768 298.666 273.493v281.173h-85.333V128H640v85.332H358.827z"/><glyph unicode="" d="M597.333 768l97.707-97.707-122.88-122.88 60.587-60.587 122.88 122.88L853.334 512v256zm-170.666 0h-256V512l97.707 97.707 200.96-200.533V85.334h85.333V444.16L328.96 670.295z"/><glyph unicode="" d="M282.453 478.294c61.44-120.747 160.427-219.307 281.173-281.173l93.867 93.868c11.52 11.52 28.587 15.36 43.52 10.24 47.787-15.787 99.413-24.32 152.32-24.32 23.467 0 42.667-19.2 42.667-42.667V85.335c0-23.467-19.2-42.667-42.667-42.667C452.693 42.667 128 367.36 128 768c0 23.467 19.2 42.667 42.667 42.667H320c23.467 0 42.667-19.2 42.667-42.667 0-53.333 8.533-104.533 24.32-152.32 4.693-14.933 1.28-31.573-10.667-43.52l-93.867-93.867z"/><glyph unicode="" d="M853.333 853.334H170.666c-46.933 0-84.907-38.4-84.907-85.333L85.33 0 256 170.67H853.33c46.933 0 85.333 38.4 85.333 85.333v512c0 46.934-38.4 85.334-85.333 85.334zM256 554.667h512v-85.333H256v85.333zm341.333-213.333H256v85.333h341.333v-85.333zm170.667 256H256v85.333h512v-85.333z"/><glyph unicode="" d="M213.333 384h597.333v85.333H213.333V384zM128 213.334h597.333v85.333H128v-85.333zM298.667 640v-85.333H896V640H298.667z"/><glyph unicode="" d="M938.24 768c0 46.933-37.973 85.333-84.907 85.333H170.666c-46.933 0-85.333-38.4-85.333-85.333V256c0-46.933 38.4-85.333 85.333-85.333H768L938.665 0l-.427 768zM768 341.334H256v85.333h512v-85.333zm0 128H256v85.333h512v-85.333zm0 128H256v85.333h512v-85.333z"/><glyph unicode="" d="M853.333 938.667H170.666v-85.333h682.667v85.333zm-682.666-1024h682.667V0H170.667v-85.333zM853.333 768H170.666c-46.933 0-85.333-38.4-85.333-85.333v-512c0-46.933 38.4-85.333 85.333-85.333h682.667c46.933 0 85.333 38.4 85.333 85.333v512c0 46.933-38.4 85.333-85.333 85.333zM512 650.667c52.907 0 96-43.093 96-96s-43.093-96-96-96-96 43.093-96 96 43.093 96 96 96zm213.333-437.333H298.666v64C298.666 348.587 440.746 384 512 384S725.33 348.59 725.33 277.335v-64z"/><glyph unicode="" d="M725.333 810.667h-42.667V597.334h42.667v213.333zM640 725.334h-85.333V768H640v42.668H512v-128h85.333V640H512v-42.666h128v128zm128 85.333V597.334h42.667v85.333H896v128H768zm85.333-85.333h-42.667V768h42.667v-42.666zm0-448c-53.333 0-104.533 8.533-152.32 24.32-14.933 4.693-31.573 1.28-43.093-10.24l-93.867-93.867c-120.747 61.44-219.733 160-281.173 281.173l93.867 94.293c11.52 11.093 14.933 27.733 10.24 42.667-15.787 47.787-24.32 98.987-24.32 152.32 0 23.467-19.2 42.667-42.667 42.667H170.667C147.2 810.667 128 791.467 128 768c0-400.64 324.693-725.333 725.333-725.333 23.467 0 42.667 19.2 42.667 42.667v149.333c0 23.467-19.2 42.667-42.667 42.667z"/><glyph unicode="" d="M512 128c-46.933 0-85.333-38.4-85.333-85.333s38.4-85.333 85.333-85.333 85.333 38.4 85.333 85.333S558.933 128 512 128zM256 896c-46.933 0-85.333-38.4-85.333-85.333s38.4-85.333 85.333-85.333 85.333 38.4 85.333 85.333S302.933 896 256 896zm0-256c-46.933 0-85.333-38.4-85.333-85.333s38.4-85.333 85.333-85.333 85.333 38.4 85.333 85.333S302.933 640 256 640zm0-256c-46.933 0-85.333-38.4-85.333-85.333s38.4-85.333 85.333-85.333 85.333 38.4 85.333 85.333S302.933 384 256 384zm512 341.334c46.933 0 85.333 38.4 85.333 85.333S814.933 896 768 896s-85.333-38.4-85.333-85.333 38.4-85.333 85.333-85.333zM512 384c-46.933 0-85.333-38.4-85.333-85.333s38.4-85.333 85.333-85.333 85.333 38.4 85.333 85.333S558.933 384 512 384zm256 0c-46.933 0-85.333-38.4-85.333-85.333s38.4-85.333 85.333-85.333 85.333 38.4 85.333 85.333S814.933 384 768 384zm0 256c-46.933 0-85.333-38.4-85.333-85.333s38.4-85.333 85.333-85.333 85.333 38.4 85.333 85.333S814.933 640 768 640zm-256 0c-46.933 0-85.333-38.4-85.333-85.333s38.4-85.333 85.333-85.333 85.333 38.4 85.333 85.333S558.933 640 512 640zm0 256c-46.933 0-85.333-38.4-85.333-85.333s38.4-85.333 85.333-85.333 85.333 38.4 85.333 85.333S558.933 896 512 896z"/><glyph unicode="" d="M512 853.334c-235.52 0-426.667-191.147-426.667-426.667S276.48 0 512 0s426.667 191.147 426.667 426.667S747.52 853.334 512 853.334zm0-768c-188.587 0-341.333 152.747-341.333 341.333 0 78.933 26.88 151.467 72.107 209.067L721.067 157.44C663.467 112.215 590.934 85.335 512 85.335zM781.227 217.6L302.934 695.893C360.534 741.12 433.067 768 512 768c188.588 0 341.334-152.747 341.334-341.333 0-78.933-26.88-151.467-72.107-209.067z"/><glyph unicode="" d="M853.333 768H170.666c-46.933 0-84.907-38.4-84.907-85.333l-.428-512c0-46.933 38.4-85.333 85.333-85.333h682.667c46.933 0 85.333 38.4 85.333 85.333v512c0 46.933-38.4 85.333-85.333 85.333zm0-170.666L512 384 170.667 597.335v85.333L512 469.334l341.333 213.333v-85.333z"/><glyph unicode="" d="M896 682.667h-85.333v-384H256v-85.333c0-23.467 19.2-42.667 42.667-42.667H768L938.667 0v640c0 23.467-19.2 42.667-42.667 42.667zm-170.667-256v384c0 23.467-19.2 42.667-42.667 42.667H128c-23.468 0-42.668-19.2-42.668-42.667V213.334L256 384h426.666c23.467 0 42.667 19.2 42.667 42.668z"/><glyph unicode="" d="M384 810.667l-170.667-170.24h128V341.334h85.333v299.093h128L384 810.667zm298.667-597.76V512h-85.333V212.907h-128L640 42.667l170.668 170.24h-128z"/><glyph unicode="" d="M881.067 48.214L780.8 148.48 512 416.855l-151.893 152.32-60.587 60.16-117.333 117.333L128 692.48l118.613-118.613c-108.8-133.973-100.693-331.093 23.893-456.107C337.066 51.2 424.533 17.92 512 17.92c76.372 0 152.32 25.173 214.612 75.947l115.2-115.2L896 32.854l-14.934 15.36zM512 102.827c-68.267 0-132.693 26.453-180.907 75.093C282.453 226.56 256 290.56 256 358.827c0 56.32 18.347 109.653 51.627 153.6L512 308.48V102.827zm0 618.24V525.654l309.333-309.76c58.453 126.293 35.84 280.32-68.267 384.427L512 841.815 354.13 683.947l60.16-60.16L512 721.067z"/><glyph unicode="" d="M753.493 600.32L512 841.813 270.507 600.32c-133.12-133.12-133.12-349.44 0-482.56C337.067 51.2 424.534 17.92 512 17.92s174.933 33.28 241.493 99.84c133.12 133.12 133.12 349.44 0 482.56zM512 102.827c-68.267 0-132.693 26.453-180.907 75.093C282.453 226.56 256 290.56 256 358.827s26.453 132.693 75.093 180.907L512 721.067v-618.24z"/><glyph unicode="" d="M810.667 853.334H213.334c-47.36 0-85.333-38.4-85.333-85.333V170.67c0-46.933 37.974-85.333 85.334-85.333H384l128-128 128 128H810.67c46.933 0 85.333 38.4 85.333 85.333V768c0 46.934-38.4 85.334-85.332 85.334zm-256-682.667h-85.333V256h85.333v-85.333zm88.32 330.667l-38.4-39.253c-30.72-31.146-49.92-56.746-49.92-120.746h-85.333v21.333c0 46.933 19.2 89.6 49.92 120.747l52.907 53.76c15.788 15.36 25.174 36.693 25.174 60.16 0 46.933-38.4 85.333-85.333 85.333s-85.332-38.4-85.332-85.333h-85.333c0 94.293 76.373 170.667 170.667 170.667S682.67 691.63 682.67 597.335c0-37.547-15.36-71.68-39.68-96z"/><glyph unicode="" d="M512 661.334c58.88 0 106.667-47.787 106.667-106.667 0-31.573-14.08-59.307-35.413-78.933l154.88-154.88c41.813 79.36 72.533 162.133 72.533 233.813 0 165.12-133.547 298.667-298.667 298.667-84.48 0-160.427-35.413-215.04-91.733l136.107-136.106c19.627 22.187 47.36 35.84 78.933 35.84zm186.453-409.6L139.52 810.667 85.333 756.48l135.68-135.68c-4.693-21.333-7.68-43.52-7.68-66.133C213.333 330.667 512 0 512 0s71.253 78.933 144.213 185.6L799.146 42.667l54.187 54.187-154.88 154.88z"/><glyph unicode="" d="M512 853.334c-165.12 0-298.667-133.547-298.667-298.667C213.333 330.667 512 0 512 0s298.667 330.667 298.667 554.667c0 165.12-133.547 298.667-298.667 298.667zM512 448c-58.88 0-106.667 47.787-106.667 106.667S453.12 661.334 512 661.334s106.667-47.787 106.667-106.667S570.88 448 512 448z"/><glyph unicode="" d="M853.333 853.334H170.666c-46.933 0-84.907-38.4-84.907-85.333L85.33 0 256 170.67H853.33c46.933 0 85.333 38.4 85.333 85.333v512c0 46.934-38.4 85.334-85.333 85.334zm-85.333-512H256v85.333h512v-85.333zm0 128H256v85.333h512v-85.333zm0 128H256v85.333h512v-85.333z"/><glyph unicode="" d="M853.333 853.334H170.666c-46.933 0-85.333-38.4-85.333-85.333V0L256 170.67h597.333c46.933 0 85.333 38.4 85.333 85.333v512c0 46.934-38.4 85.334-85.333 85.334z"/><glyph unicode="" d="M810.24 725.334c0 46.933-37.973 85.333-84.907 85.333H426.666l-99.84-99.84 483.84-483.84-.427 498.347zM155.733 773.12l-54.187-54.187 111.787-111.787V128c0-46.934 38.4-85.334 85.333-85.334H725.76c14.932 0 28.586 4.267 40.96 11.093l80.212-80.214 54.187 54.187L155.73 773.12z"/><glyph unicode="" d="M282.453 478.294c61.44-120.747 160.427-219.307 281.173-281.173l93.867 93.868c11.52 11.52 28.587 15.36 43.52 10.24 47.787-15.787 99.413-24.32 152.32-24.32 23.467 0 42.667-19.2 42.667-42.667V85.335c0-23.467-19.2-42.667-42.667-42.667C452.693 42.667 128 367.36 128 768c0 23.467 19.2 42.667 42.667 42.667H320c23.467 0 42.667-19.2 42.667-42.667 0-53.333 8.533-104.533 24.32-152.32 4.693-14.933 1.28-31.573-10.667-43.52l-93.867-93.867z"/><glyph unicode="" d="M749.227 331.094C761.174 360.534 768 392.96 768 426.667c0 141.227-114.773 256-256 256-33.707 0-66.133-6.827-95.573-18.773l69.12-69.12c8.533 1.28 17.493 2.56 26.453 2.56 94.293 0 170.667-76.373 170.667-170.667 0-8.96-.853-17.92-2.133-26.88l68.693-68.693zM512 768c188.587 0 341.333-152.747 341.333-341.333 0-57.6-14.933-111.787-40.533-159.573l62.72-62.72c40.107 64.853 63.147 140.8 63.147 222.293 0 235.52-191.147 426.667-426.667 426.667-81.493 0-157.44-23.467-222.293-62.72L352 728.32C399.787 753.495 454.4 768 512 768zm-372.48 64l-54.187-54.187 89.6-89.6c-55.893-72.533-89.6-162.987-89.6-261.547 0-157.867 85.76-295.253 212.907-369.067l42.667 73.812c-101.547 59.307-170.24 168.96-170.24 295.253 0 75.093 24.32 144.213 65.28 200.107l61.013-61.44c-25.6-39.68-40.96-87.467-40.96-138.667 0-94.72 51.627-177.067 128-221.44l42.667 74.24c-50.773 29.867-85.333 84.053-85.333 147.2 0 27.733 7.253 53.333 18.773 76.373l67.413-67.413-.853-8.96c0-46.933 38.4-85.333 85.333-85.333l8.96.853L841.813 21.332 896 75.52 139.52 832z"/><glyph unicode="" d="M938.667 810.667H85.334C38.4 810.667 0 772.267 0 725.334V128C0 81.07 38.4 42.67 85.335 42.67h853.333c46.933 0 84.907 38.4 84.907 85.333l.427 597.334c0 46.933-38.4 85.333-85.332 85.333zm-597.334-128c70.827 0 128-57.173 128-128s-57.173-128-128-128-128 57.173-128 128 57.173 128 128 128zm256-512h-512v42.667c0 85.333 170.667 132.267 256 132.267s256-46.932 256-132.266v-42.667zM761.6 341.334h69.973L896 256l-84.907-84.906c-55.893 41.813-97.28 101.547-116.48 170.24-7.68 27.307-11.947 55.893-11.947 85.333s4.267 58.027 11.947 85.333c19.2 69.12 60.587 128.427 116.48 170.24L896 597.333 831.573 512H761.6c-9.387-26.88-14.933-55.467-14.933-85.333s5.547-58.453 14.933-85.333z"/><glyph unicode="" d="M896 597.334V640L768 554.67 640 640v-42.666L768 512l128 85.334zm42.667 213.333H85.334C38.4 810.667 0 772.267 0 725.334V128C0 81.07 38.4 42.67 85.335 42.67h853.333c46.933 0 84.907 38.4 84.907 85.333l.427 597.334c0 46.933-38.4 85.333-85.332 85.333zm-597.334-128c70.827 0 128-57.173 128-128s-57.173-128-128-128-128 57.173-128 128 57.173 128 128 128zm256-512h-512v42.667c0 85.333 170.667 132.267 256 132.267s256-46.932 256-132.266v-42.667zm341.334 256H597.334v256h341.333v-256z"/><glyph unicode="" d="M1011.627 227.414C881.494 350.72 705.707 426.667 512 426.667S142.507 350.72 12.373 227.414C4.693 219.734 0 209.067 0 197.12s4.693-22.612 12.373-30.292L118.186 61.015c7.68-7.68 18.347-12.373 30.293-12.373 11.52 0 22.186 4.693 29.866 11.947 33.707 31.572 72.107 58.026 113.493 78.932 14.08 6.827 23.892 21.333 23.892 38.4V310.19c61.867 20.48 128 31.146 196.267 31.146s134.4-10.667 196.266-30.72V178.35c0-16.64 9.813-31.574 23.893-38.4C773.97 119.04 811.945 92.16 845.65 61.015c7.68-7.68 18.347-11.947 29.867-11.947 11.946 0 22.612 4.692 30.292 12.372l105.813 105.813c7.68 7.68 12.373 18.347 12.373 30.293 0 11.52-4.693 22.187-12.373 29.867zm-108.8 444.16l-60.16 60.16-151.893-151.467 60.16-60.16s147.2 150.187 151.893 151.467zm-348.16 181.76h-85.333V640h85.333v213.334zm-281.6-333.227l60.16 60.16L181.76 732.16l-60.587-60.587c4.693-1.28 151.893-151.467 151.893-151.467z"/></font>
</defs>
</svg>
